<svg xmlns="http://www.w3.org/2000/svg" xmlns:xlink="http://www.w3.org/1999/xlink" width="300" zoomAndPan="magnify" viewBox="0 0 224.87999 225" height="300" preserveAspectRatio="xMidYMid meet" version="1.2"><defs><clipPath id="b173cd4160"><path d="M 125 0.0585938 L 152 0.0585938 L 152 26 L 125 26 Z M 125 0.0585938 "/></clipPath></defs><g id="8822e84953"><path style=" stroke:none;fill-rule:nonzero;fill:#ffad8d;fill-opacity:1;" d="M 99.449219 68.191406 C 100.914062 71.132812 101.871094 80.449219 101.226562 84.578125 C 100.382812 89.949219 95.652344 94.9375 91.417969 97.910156 C 95.46875 112.960938 101.636719 134.101562 106.363281 132.046875 C 110.566406 130.21875 135.835938 96.484375 135.835938 96.484375 C 135.835938 96.484375 130.957031 95.507812 128.4375 86.160156 C 126.308594 78.238281 129.214844 67.1875 129.214844 67.1875 C 129.214844 67.1875 104.21875 67.046875 99.449219 68.191406 Z M 99.449219 68.191406 "/><path style=" stroke:none;fill-rule:nonzero;fill:#171414;fill-opacity:1;" d="M 112.09375 16.328125 C 101.386719 15.316406 92.277344 16.273438 85.625 24.535156 C 83.328125 27.386719 80.066406 33.578125 79.589844 43.464844 C 79.238281 50.761719 83.339844 62.867188 88.710938 67.941406 C 93.199219 72.183594 98.011719 73.425781 104.109375 74.671875 C 111.941406 76.273438 121.066406 76.792969 128.109375 73.089844 C 135.300781 69.3125 142.71875 64.792969 144.160156 50.871094 C 145.554688 37.425781 142.183594 32.472656 134.335938 24.628906 C 128.617188 18.914062 120.953125 17.164062 112.09375 16.328125 Z M 112.09375 16.328125 "/><path style=" stroke:none;fill-rule:nonzero;fill:#ffad8d;fill-opacity:1;" d="M 95.792969 23.375 C 88.601562 29.511719 88.074219 32.277344 87.167969 43.910156 C 86.433594 53.300781 86.875 65.324219 90.070312 72.25 C 94.140625 81.074219 107.691406 83.359375 116.28125 81.5625 C 126.199219 79.484375 129.816406 71.660156 134.171875 59.25 C 136.863281 51.585938 141.125 45.863281 138.855469 38.792969 C 136.191406 30.488281 129.28125 26.386719 121.070312 22.714844 C 112.855469 19.042969 102.214844 17.894531 95.792969 23.375 Z M 95.792969 23.375 "/><path style=" stroke:none;fill-rule:nonzero;fill:#171414;fill-opacity:1;" d="M 105.023438 62.382812 C 104.871094 62.382812 104.722656 62.324219 104.609375 62.210938 C 103.46875 61.039062 102.464844 59.734375 101.632812 58.328125 C 101.511719 58.125 101.527344 57.863281 101.679688 57.675781 C 101.828125 57.488281 102.070312 57.414062 102.304688 57.484375 C 103.210938 57.773438 104.335938 57.375 105.042969 56.523438 C 105.832031 55.570312 106.023438 54.292969 106.046875 53.382812 C 106.066406 52.460938 105.945312 51.546875 105.816406 50.582031 L 105.707031 49.738281 C 105.667969 49.421875 105.890625 49.136719 106.207031 49.097656 C 106.519531 49.050781 106.8125 49.28125 106.851562 49.597656 L 106.957031 50.425781 C 107.089844 51.394531 107.222656 52.398438 107.199219 53.410156 C 107.164062 54.972656 106.726562 56.304688 105.929688 57.261719 C 105.238281 58.097656 104.238281 58.613281 103.242188 58.710938 C 103.890625 59.671875 104.625 60.574219 105.4375 61.40625 C 105.65625 61.632812 105.652344 61.996094 105.425781 62.21875 C 105.3125 62.328125 105.167969 62.382812 105.023438 62.382812 Z M 105.023438 62.382812 "/><path style=" stroke:none;fill-rule:nonzero;fill:#171414;fill-opacity:1;" d="M 104.835938 67.710938 C 104.109375 67.710938 103.390625 67.613281 102.710938 67.398438 C 102.40625 67.304688 102.238281 66.980469 102.332031 66.675781 C 102.425781 66.375 102.75 66.199219 103.054688 66.300781 C 105.964844 67.214844 110.027344 65.527344 110.828125 63.085938 C 110.925781 62.78125 111.257812 62.617188 111.554688 62.714844 C 111.859375 62.816406 112.023438 63.140625 111.925781 63.441406 C 111.109375 65.929688 107.910156 67.710938 104.835938 67.710938 Z M 104.835938 67.710938 "/><path style=" stroke:none;fill-rule:nonzero;fill:#eb4f28;fill-opacity:1;" d="M 128.015625 83.085938 C 124.757812 89.28125 120.265625 92.125 113.625 92.492188 C 109.234375 92.734375 101.761719 92.976562 100.390625 87.066406 C 95.597656 89.570312 85.898438 91.378906 76.785156 95.316406 C 68.28125 98.992188 63.863281 134.140625 59.929688 155.660156 C 55.789062 178.292969 57.386719 207.148438 68.484375 210.644531 C 95.179688 219.054688 124.011719 210.398438 143.492188 209.316406 C 147.023438 209.121094 151.296875 204.339844 154.863281 187.367188 C 163.421875 146.636719 178.71875 108.007812 170.527344 100.796875 C 162.121094 93.398438 137.585938 87.296875 128.015625 83.085938 Z M 128.015625 83.085938 "/><path style=" stroke:none;fill-rule:nonzero;fill:#171414;fill-opacity:1;" d="M 108.664062 82.96875 C 106.015625 82.96875 103.40625 82.539062 101.210938 81.644531 C 100.917969 81.523438 100.773438 81.1875 100.894531 80.894531 C 101.015625 80.597656 101.355469 80.457031 101.644531 80.578125 C 106.9375 82.730469 115.097656 81.957031 119.472656 78.886719 C 119.730469 78.703125 120.089844 78.765625 120.273438 79.027344 C 120.457031 79.285156 120.394531 79.644531 120.132812 79.828125 C 117.222656 81.871094 112.890625 82.96875 108.664062 82.96875 Z M 108.664062 82.96875 "/><path style=" stroke:none;fill-rule:nonzero;fill:#ffad8d;fill-opacity:1;" d="M 44.101562 125.945312 C 39.722656 135.695312 30.890625 151.550781 28.332031 170.546875 C 26.113281 187.039062 26.980469 196.933594 29.09375 201.15625 C 32.78125 208.519531 45.792969 209.265625 53.992188 208.429688 C 60.179688 207.800781 63.570312 199.675781 66.542969 189.558594 C 70.386719 176.476562 71.777344 157.046875 75.03125 142.074219 C 76.761719 134.109375 85.300781 116.824219 83.160156 111.914062 C 80.339844 105.453125 48.316406 116.566406 44.101562 125.945312 Z M 44.101562 125.945312 "/><path style=" stroke:none;fill-rule:nonzero;fill:#eb4f28;fill-opacity:1;" d="M 95.441406 90.171875 C 91.78125 89.34375 76.226562 95.433594 72.789062 96.941406 C 69.351562 98.445312 60.667969 103.285156 57.839844 105.753906 C 44.492188 117.40625 40.058594 124.484375 31.457031 139.128906 C 27.1875 146.398438 19.542969 156.035156 24.042969 162.457031 C 25.957031 165.183594 30.949219 165.257812 32.882812 164.515625 C 34.828125 170.828125 44.15625 170.191406 45.84375 167.136719 C 48.976562 170.222656 54.527344 170.394531 57.84375 167.503906 C 59.304688 170.355469 63.1875 170.777344 66.378906 170.453125 C 69.304688 170.15625 72.40625 169.429688 74.386719 167.253906 C 75.761719 165.746094 76.410156 163.734375 77.019531 161.789062 C 78.382812 157.441406 79.714844 153.085938 81.019531 148.726562 C 83.878906 139.15625 86.613281 129.5 87.851562 119.589844 C 88.417969 115.042969 88.667969 110.402344 87.808594 105.898438 C 86.949219 101.394531 99.523438 91.09375 95.441406 90.171875 Z M 95.441406 90.171875 "/><path style=" stroke:none;fill-rule:nonzero;fill:#171414;fill-opacity:1;" d="M 109.609375 100.332031 C 109.503906 100.332031 109.398438 100.328125 109.292969 100.324219 C 107.578125 100.199219 105.953125 99.183594 104.832031 97.53125 C 104.164062 96.546875 103.757812 95.457031 103.636719 94.378906 C 101.433594 96.960938 98.03125 98.472656 94.875 98.089844 C 91.957031 97.738281 91.058594 96.113281 90.78125 95.175781 C 90.246094 93.355469 91.082031 91.082031 92.8125 89.648438 C 93.058594 89.445312 93.421875 89.480469 93.625 89.726562 C 93.828125 89.972656 93.792969 90.335938 93.546875 90.539062 C 92.183594 91.667969 91.484375 93.480469 91.890625 94.851562 C 92.234375 96.015625 93.3125 96.738281 95.011719 96.945312 C 98.40625 97.351562 102.136719 95.261719 103.886719 91.984375 C 104.027344 91.722656 104.34375 91.609375 104.621094 91.722656 C 104.894531 91.839844 105.035156 92.144531 104.945312 92.429688 C 104.511719 93.804688 104.824219 95.46875 105.785156 96.882812 C 106.695312 98.222656 108.035156 99.078125 109.371094 99.171875 C 110.726562 99.269531 112.246094 98.542969 113.441406 97.234375 C 114.554688 96.011719 115.164062 94.5 115.089844 93.195312 C 115.070312 93.050781 115.054688 92.90625 115.042969 92.761719 C 115.019531 92.457031 115.242188 92.183594 115.550781 92.148438 C 115.84375 92.109375 116.136719 92.320312 116.1875 92.625 C 116.214844 92.773438 116.230469 92.925781 116.242188 93.074219 C 116.488281 94.667969 117.476562 96.257812 118.832031 97.214844 C 119.980469 98.023438 121.253906 98.292969 122.421875 97.976562 C 123.238281 97.753906 123.890625 97.113281 124.363281 96.070312 C 125.328125 93.933594 125.292969 90.515625 124.277344 88.445312 C 124.144531 88.167969 124.25 87.832031 124.523438 87.6875 C 124.792969 87.539062 125.132812 87.632812 125.292969 87.898438 C 126.542969 90.011719 131.296875 95.792969 134.742188 94.761719 C 136.535156 94.222656 137.699219 92.972656 137.933594 91.335938 C 138.195312 89.519531 137.246094 87.621094 135.519531 86.5 C 135.253906 86.328125 135.179688 85.96875 135.351562 85.703125 C 135.527344 85.4375 135.882812 85.363281 136.148438 85.535156 C 138.25 86.898438 139.398438 89.238281 139.078125 91.5 C 138.777344 93.601562 137.316406 95.191406 135.074219 95.867188 C 131.90625 96.824219 128.320312 93.589844 126.144531 91 C 126.355469 92.917969 126.113281 94.996094 125.414062 96.542969 C 124.800781 97.894531 123.871094 98.777344 122.726562 99.089844 C 121.222656 99.496094 119.601562 99.167969 118.167969 98.15625 C 117.199219 97.472656 116.402344 96.546875 115.855469 95.503906 C 115.523438 96.378906 114.996094 97.238281 114.292969 98.007812 C 112.953125 99.480469 111.222656 100.332031 109.609375 100.332031 Z M 109.609375 100.332031 "/><path style=" stroke:none;fill-rule:nonzero;fill:#ffad8d;fill-opacity:1;" d="M 191.175781 136.941406 C 195.613281 147.476562 198.152344 153.144531 198.152344 162.457031 C 198.152344 178.890625 195 191.429688 190.078125 198.144531 C 186.726562 202.71875 180.421875 209.457031 172.007812 210.074219 C 154.1875 211.375 146.195312 193.40625 148.757812 187.203125 C 157.382812 166.300781 151.222656 149.707031 148.832031 127.574219 C 147.035156 110.925781 148.332031 109.460938 157.078125 105 C 163.789062 101.582031 187.738281 128.777344 191.175781 136.941406 Z M 191.175781 136.941406 "/><path style=" stroke:none;fill-rule:nonzero;fill:#eb4f28;fill-opacity:1;" d="M 152.777344 93.09375 C 176.039062 97.152344 190.863281 118.589844 195.617188 129.433594 C 199.460938 138.191406 203.386719 146.136719 204.582031 152.078125 C 205.449219 156.394531 204.90625 160.0625 201.953125 162.457031 C 199.253906 164.640625 195.132812 165.53125 190.320312 163.039062 C 189.371094 170.414062 181.871094 173.535156 177.046875 172.902344 C 172.875 172.355469 169.050781 169.65625 167.160156 165.929688 C 167.765625 168.601562 163.746094 175.808594 160.332031 176.234375 C 155.636719 176.816406 153.269531 176.160156 149.980469 174.578125 C 145.300781 172.324219 143.058594 166.105469 145.238281 161.421875 C 143.59375 161.222656 142.792969 159.363281 142.382812 157.773438 C 138.796875 143.945312 140.429688 129.402344 141.265625 115.148438 C 141.511719 110.96875 141.691406 106.746094 142.761719 102.695312 C 143.835938 98.648438 147.753906 92.21875 152.777344 93.09375 Z M 152.777344 93.09375 "/><path style=" stroke:none;fill-rule:nonzero;fill:#171414;fill-opacity:1;" d="M 159.628906 159.570312 C 159.390625 159.570312 159.167969 159.421875 159.085938 159.183594 C 156.941406 153.058594 154.441406 146.984375 151.660156 141.132812 C 151.523438 140.84375 151.644531 140.5 151.933594 140.363281 C 152.21875 140.226562 152.5625 140.347656 152.699219 140.636719 C 155.503906 146.527344 158.015625 152.640625 160.175781 158.800781 C 160.28125 159.101562 160.121094 159.433594 159.820312 159.535156 C 159.757812 159.558594 159.695312 159.570312 159.628906 159.570312 Z M 159.628906 159.570312 "/><path style=" stroke:none;fill-rule:nonzero;fill:#ffe1c4;fill-opacity:1;" d="M 94.226562 103.722656 C 94.503906 101.128906 95.859375 99.007812 97.835938 97.300781 C 99.710938 95.683594 101.675781 95.28125 104.152344 95.316406 C 107.082031 95.359375 110.585938 95.945312 113.078125 97.488281 C 118.28125 100.714844 119.804688 106.746094 120.144531 112.855469 C 120.433594 118.121094 119.828125 123.390625 119.503906 127.957031 C 118.832031 131.328125 120.832031 134.785156 123.59375 136.835938 C 126.355469 138.890625 129.761719 139.832031 133.085938 140.734375 C 140.433594 142.730469 148.074219 144.898438 153.71875 150.011719 C 156.140625 152.207031 158.535156 154.84375 160 156.78125 C 161.40625 158.636719 165.542969 162.898438 171.582031 160.652344 C 172.714844 160.230469 175.882812 158.308594 176.800781 159.09375 C 177.789062 159.941406 176.535156 165.09375 174.53125 167.957031 C 173.074219 170.039062 169.820312 174.402344 161.132812 176.015625 C 156.460938 179.015625 152.832031 181.933594 144.820312 185.472656 C 136.808594 189.011719 123.695312 196.246094 115.101562 194.554688 C 111.40625 193.824219 100.636719 194.738281 97.519531 192.621094 C 89.214844 186.988281 93.199219 170.011719 93.214844 160.398438 C 93.21875 157.199219 94.570312 152.191406 95.773438 149.226562 C 96.972656 146.261719 98.625 143.5 99.980469 140.601562 C 101.34375 137.695312 102.40625 134.648438 102.757812 132.441406 C 103.515625 128.539062 104.027344 123.585938 103.949219 120.617188 C 103.933594 119.984375 103.875 118.46875 103.425781 118.03125 C 101.566406 116.222656 95.679688 115.757812 94.796875 112.839844 C 94.246094 111.019531 93.847656 107.273438 94.226562 103.722656 Z M 94.226562 103.722656 "/><path style=" stroke:none;fill-rule:nonzero;fill:#171414;fill-opacity:1;" d="M 141.332031 176.808594 C 140.160156 176.808594 138.902344 176.664062 137.539062 176.371094 C 128.558594 174.449219 120.539062 167.25 117.113281 158.035156 C 117.003906 157.734375 117.15625 157.40625 117.453125 157.292969 C 117.75 157.179688 118.082031 157.335938 118.195312 157.632812 C 121.488281 166.488281 129.175781 173.398438 137.78125 175.242188 C 140.175781 175.753906 142.191406 175.789062 143.953125 175.347656 C 146.046875 174.824219 147.796875 173.53125 148.628906 171.890625 C 149.304688 170.570312 149.34375 168.921875 148.742188 167.375 C 148.207031 166 147.238281 164.90625 146.050781 164.316406 C 145.886719 164.25 145.730469 164.179688 145.578125 164.113281 C 145.292969 163.988281 145.15625 163.660156 145.273438 163.371094 C 145.394531 163.078125 145.714844 162.9375 146.011719 163.046875 C 146.1875 163.113281 146.359375 163.1875 146.53125 163.269531 C 147.601562 163.722656 148.773438 164.152344 149.921875 164.003906 C 150.601562 163.917969 151.300781 163.511719 151.703125 162.972656 C 151.898438 162.707031 152.117188 162.28125 152.035156 161.773438 C 151.929688 161.15625 151.433594 160.570312 150.511719 159.984375 C 149.660156 159.441406 148.746094 159.015625 147.789062 158.714844 C 147.597656 158.664062 147.414062 158.609375 147.242188 158.558594 C 146.941406 158.46875 146.765625 158.15625 146.851562 157.851562 C 146.9375 157.550781 147.246094 157.363281 147.554688 157.449219 C 147.742188 157.5 147.929688 157.550781 148.117188 157.609375 C 148.558594 157.722656 149 157.800781 149.414062 157.746094 C 149.855469 157.6875 150.367188 157.386719 150.4375 156.949219 C 150.507812 156.53125 150.199219 156.042969 149.5 155.457031 C 148.140625 154.3125 146.636719 153.351562 145.023438 152.601562 C 144.734375 152.46875 144.609375 152.125 144.742188 151.835938 C 144.875 151.546875 145.21875 151.421875 145.511719 151.558594 C 147.214844 152.347656 148.808594 153.363281 150.242188 154.574219 C 150.625 154.894531 151.785156 155.871094 151.574219 157.136719 C 151.464844 157.824219 150.996094 158.316406 150.445312 158.605469 C 150.679688 158.734375 150.90625 158.867188 151.132812 159.011719 C 152.34375 159.785156 153.011719 160.625 153.171875 161.585938 C 153.289062 162.292969 153.097656 163.03125 152.628906 163.664062 C 152.039062 164.453125 151.058594 165.019531 150.066406 165.148438 C 149.640625 165.203125 149.214844 165.195312 148.800781 165.144531 C 149.214844 165.683594 149.558594 166.292969 149.816406 166.957031 C 150.539062 168.808594 150.480469 170.800781 149.65625 172.414062 C 148.660156 174.375 146.683594 175.851562 144.234375 176.46875 C 143.324219 176.695312 142.363281 176.808594 141.332031 176.808594 Z M 141.332031 176.808594 "/><path style=" stroke:none;fill-rule:nonzero;fill:#ffad8d;fill-opacity:1;" d="M 159.632812 177.734375 C 157.324219 179.503906 157.019531 179.148438 151.746094 182.015625 C 142.066406 187.277344 124.914062 189.402344 111.335938 191.175781 C 98.503906 192.855469 86.097656 191.402344 84.546875 192.058594 C 83.738281 192.398438 73.785156 195.34375 67.859375 208.511719 C 74.929688 213.839844 94.53125 217.476562 105.726562 219.152344 C 143.042969 224.746094 178.507812 213.476562 188.238281 200.941406 C 197.867188 188.539062 186.660156 177.289062 185.035156 176.230469 C 179.429688 172.589844 164.703125 173.847656 159.632812 177.734375 Z M 159.632812 177.734375 "/><path style=" stroke:none;fill-rule:nonzero;fill:#ffad8d;fill-opacity:1;" d="M 94.292969 153.488281 C 102.246094 161.539062 108.257812 165.085938 115.441406 169.410156 C 103.140625 188.667969 94.636719 195.78125 80.8125 208.316406 C 74.878906 213.699219 54.851562 224.851562 36.605469 214.285156 C 23.382812 206.628906 26.621094 184.445312 28.304688 180.761719 C 31.328125 174.148438 55.636719 179.925781 63.039062 176.441406 C 73.941406 171.308594 82.4375 165.484375 94.292969 153.488281 Z M 94.292969 153.488281 "/><path style=" stroke:none;fill-rule:nonzero;fill:#ffad8d;fill-opacity:1;" d="M 108.445312 131.714844 C 108.445312 131.714844 110.988281 137.921875 113.390625 136.589844 C 115.253906 135.558594 116.203125 133.398438 117.289062 131.558594 C 118.421875 129.632812 119.25 127.988281 120.382812 126.0625 C 121.003906 125.007812 121.878906 123.394531 122.746094 123.585938 C 124.203125 123.90625 123.625 127.230469 123.527344 128.496094 C 124.160156 127.449219 124.949219 125.464844 125.757812 126.328125 C 126.941406 127.59375 126.480469 130.746094 126.082031 132.234375 C 126.628906 131.855469 127.160156 129.277344 128.203125 129.832031 C 129.945312 130.761719 128.773438 134.5625 128.386719 135.636719 C 128.386719 135.457031 131.789062 131.773438 130.648438 138.011719 C 129.867188 142.300781 126.597656 149.871094 121.949219 158.152344 C 116.804688 167.324219 113.429688 174.53125 107.621094 176.441406 C 107.203125 176.578125 96.625 166.113281 90.574219 157.703125 C 92.824219 155.34375 96.128906 151.285156 97.75 149.3125 C 101.554688 144.683594 104.097656 139.246094 106.207031 135.886719 C 107.4375 133.929688 108.125 131.761719 108.445312 131.714844 Z M 108.445312 131.714844 "/><path style=" stroke:none;fill-rule:nonzero;fill:#171414;fill-opacity:1;" d="M 118.351562 139.785156 C 118.25 139.785156 118.144531 139.757812 118.046875 139.699219 C 117.777344 139.53125 117.695312 139.175781 117.863281 138.90625 C 120.195312 135.152344 122.199219 129.859375 123.207031 126.46875 C 123.300781 126.164062 123.617188 125.992188 123.925781 126.078125 C 124.230469 126.171875 124.40625 126.492188 124.316406 126.796875 C 123.285156 130.253906 121.238281 135.660156 118.84375 139.511719 C 118.734375 139.6875 118.546875 139.785156 118.351562 139.785156 Z M 118.351562 139.785156 "/><path style=" stroke:none;fill-rule:nonzero;fill:#171414;fill-opacity:1;" d="M 121.617188 143.179688 C 121.527344 143.179688 121.4375 143.160156 121.351562 143.117188 C 121.066406 142.96875 120.957031 142.621094 121.105469 142.339844 L 121.40625 141.753906 C 123.058594 138.574219 125.558594 133.769531 126.234375 130.207031 C 126.292969 129.894531 126.59375 129.6875 126.910156 129.75 C 127.222656 129.808594 127.425781 130.113281 127.367188 130.425781 C 126.660156 134.148438 124.117188 139.046875 122.433594 142.285156 L 122.128906 142.867188 C 122.027344 143.066406 121.824219 143.179688 121.617188 143.179688 Z M 121.617188 143.179688 "/><path style=" stroke:none;fill-rule:nonzero;fill:#171414;fill-opacity:1;" d="M 124.421875 146.582031 C 124.34375 146.582031 124.261719 146.5625 124.183594 146.527344 C 123.890625 146.394531 123.765625 146.054688 123.898438 145.765625 L 124.277344 144.933594 C 125.78125 141.660156 127.484375 137.953125 128.269531 134.253906 C 128.335938 133.941406 128.648438 133.75 128.957031 133.808594 C 129.265625 133.875 129.464844 134.183594 129.398438 134.496094 C 128.585938 138.316406 126.855469 142.085938 125.328125 145.414062 L 124.945312 146.246094 C 124.851562 146.457031 124.640625 146.582031 124.421875 146.582031 Z M 124.421875 146.582031 "/><path style=" stroke:none;fill-rule:nonzero;fill:#ffad8d;fill-opacity:1;" d="M 105.800781 136.546875 C 107.601562 132.769531 108.308594 129.816406 110.261719 126.910156 C 110.558594 126.472656 111.21875 125.644531 111.914062 125.890625 C 112.5 126.097656 112.84375 126.523438 112.84375 127.367188 C 112.84375 128.414062 112.65625 129.640625 112.457031 130.667969 C 112.097656 132.511719 111.894531 133.753906 111.832031 134.976562 C 111.804688 135.539062 111.683594 136.597656 112.859375 136.96875 C 114.371094 137.445312 107.351562 137.414062 105.800781 136.546875 Z M 105.800781 136.546875 "/><path style=" stroke:none;fill-rule:nonzero;fill:#171414;fill-opacity:1;" d="M 75.390625 213.910156 C 75.210938 213.910156 75.035156 213.828125 74.921875 213.667969 C 74.738281 213.410156 74.796875 213.050781 75.054688 212.863281 C 86.175781 204.90625 90.050781 200.933594 98.285156 191.625 C 98.5 191.382812 98.863281 191.363281 99.101562 191.574219 C 99.339844 191.785156 99.363281 192.148438 99.152344 192.390625 C 90.851562 201.773438 86.945312 205.773438 75.726562 213.800781 C 75.625 213.875 75.507812 213.910156 75.390625 213.910156 Z M 75.390625 213.910156 "/><path style=" stroke:none;fill-rule:nonzero;fill:#171414;fill-opacity:1;" d="M 57.84375 179.84375 C 57.65625 179.84375 57.46875 179.75 57.359375 179.578125 C 57.1875 179.308594 57.265625 178.953125 57.535156 178.78125 C 59.554688 177.484375 62.234375 176.21875 65.070312 174.875 C 68.3125 173.335938 71.667969 171.75 74.09375 170.070312 C 74.355469 169.890625 74.714844 169.957031 74.894531 170.21875 C 75.078125 170.480469 75.011719 170.839844 74.75 171.019531 C 72.246094 172.75 68.851562 174.359375 65.566406 175.914062 C 62.765625 177.242188 60.117188 178.496094 58.15625 179.753906 C 58.058594 179.8125 57.953125 179.84375 57.84375 179.84375 Z M 57.84375 179.84375 "/><path style=" stroke:none;fill-rule:nonzero;fill:#171414;fill-opacity:1;" d="M 70.015625 173.585938 C 69.957031 173.585938 69.902344 173.578125 69.84375 173.558594 C 69.539062 173.464844 69.367188 173.140625 69.464844 172.839844 C 70.753906 168.683594 74.644531 149.929688 75.769531 142.4375 C 75.816406 142.121094 76.113281 141.90625 76.425781 141.953125 C 76.742188 142 76.957031 142.292969 76.910156 142.609375 C 75.78125 150.136719 71.863281 168.992188 70.566406 173.179688 C 70.488281 173.425781 70.261719 173.585938 70.015625 173.585938 Z M 70.015625 173.585938 "/><path style=" stroke:none;fill-rule:nonzero;fill:#ffba3b;fill-opacity:1;" d="M 91.609375 108.289062 C 90.015625 110.902344 88.550781 110.996094 86.863281 111.902344 C 86.144531 112.289062 85.332031 112.925781 85.515625 113.761719 C 85.695312 114.574219 86.648438 114.914062 88.132812 114.980469 C 89.574219 115.042969 91.578125 114.847656 92.9375 114.289062 C 94.296875 113.734375 95.316406 113.273438 95.550781 111.316406 C 95.671875 110.3125 95.828125 109.085938 95.824219 108.394531 C 95.820312 107.472656 95.789062 104.921875 94.546875 105.003906 C 92.699219 105.125 92.625 106.628906 91.609375 108.289062 Z M 91.609375 108.289062 "/><path style=" stroke:none;fill-rule:nonzero;fill:#171414;fill-opacity:1;" d="M 104.308594 106.839844 L 104.273438 106.839844 C 103.351562 106.828125 102.507812 106.222656 102.269531 105.402344 C 102.179688 105.097656 102.355469 104.777344 102.660156 104.6875 C 102.96875 104.597656 103.285156 104.773438 103.375 105.078125 C 103.472656 105.414062 103.875 105.679688 104.289062 105.6875 L 104.308594 105.6875 C 104.730469 105.6875 105.183594 105.46875 105.554688 105.089844 C 105.777344 104.863281 106.140625 104.855469 106.371094 105.078125 C 106.601562 105.300781 106.605469 105.664062 106.382812 105.894531 C 105.796875 106.496094 105.042969 106.839844 104.308594 106.839844 Z M 104.308594 106.839844 "/><path style=" stroke:none;fill-rule:nonzero;fill:#171414;fill-opacity:1;" d="M 119.316406 55.921875 C 119.085938 55.921875 118.867188 55.78125 118.777344 55.550781 C 118.457031 54.714844 117.613281 54.097656 116.71875 54.050781 C 115.820312 54.023438 114.917969 54.527344 114.511719 55.324219 C 114.367188 55.613281 114.015625 55.71875 113.734375 55.578125 C 113.453125 55.433594 113.339844 55.085938 113.484375 54.800781 C 114.101562 53.59375 115.433594 52.832031 116.78125 52.898438 C 118.136719 52.972656 119.371094 53.871094 119.855469 55.136719 C 119.96875 55.4375 119.820312 55.769531 119.523438 55.882812 C 119.457031 55.910156 119.386719 55.921875 119.316406 55.921875 Z M 119.316406 55.921875 "/><path style=" stroke:none;fill-rule:nonzero;fill:#171414;fill-opacity:1;" d="M 94.253906 55.773438 C 94.167969 55.773438 94.078125 55.753906 93.996094 55.710938 C 93.710938 55.570312 93.59375 55.222656 93.738281 54.9375 C 94.296875 53.820312 95.464844 53.078125 96.71875 53.042969 C 97.953125 53.007812 99.175781 53.691406 99.796875 54.777344 C 99.957031 55.050781 99.859375 55.40625 99.582031 55.5625 C 99.308594 55.71875 98.957031 55.625 98.796875 55.347656 C 98.390625 54.636719 97.574219 54.175781 96.75 54.195312 C 95.929688 54.21875 95.132812 54.726562 94.769531 55.453125 C 94.667969 55.65625 94.464844 55.773438 94.253906 55.773438 Z M 94.253906 55.773438 "/><path style=" stroke:none;fill-rule:nonzero;fill:#171414;fill-opacity:1;" d="M 107.738281 21.363281 C 102.1875 32.449219 97.675781 45.605469 83.25 47.679688 C 82.203125 47.832031 78.707031 49.8125 83.394531 35.558594 C 84.628906 31.800781 86.464844 27.917969 89.703125 25.640625 C 91.894531 24.101562 95.082031 21.722656 97.640625 20.921875 C 100.863281 19.90625 103.214844 19.019531 107.082031 19.910156 C 107.886719 20.097656 108.660156 19.523438 107.738281 21.363281 Z M 107.738281 21.363281 "/><path style=" stroke:none;fill-rule:nonzero;fill:#171414;fill-opacity:1;" d="M 99.414062 18.382812 C 98.617188 24.761719 100.5 31.539062 104.953125 36.363281 C 109.402344 41.183594 113.710938 42.050781 120.207031 43.511719 C 124.570312 44.492188 127.191406 46.132812 128.0625 48.285156 C 128.726562 49.929688 129.875 51.59375 131.648438 52.039062 C 133.722656 52.558594 137.796875 52.566406 138.960938 50.84375 C 141.488281 47.109375 140.371094 40.257812 138.652344 36.089844 C 135.746094 29.027344 128.566406 23.5 121.539062 20.050781 C 114.507812 16.605469 106.175781 15.726562 99.414062 18.382812 Z M 99.414062 18.382812 "/><path style=" stroke:none;fill-rule:nonzero;fill:#ffad8d;fill-opacity:1;" d="M 130.257812 51.449219 C 132.097656 49.320312 135.976562 47.316406 138.601562 49.730469 C 140.375 51.363281 140.625 54.128906 139.386719 56.269531 C 138.148438 58.410156 135.597656 59.863281 132.988281 60.152344 C 132.625 60.195312 132.25 60.210938 131.90625 60.125 C 131.148438 59.929688 130.691406 59.265625 130.351562 58.625 C 129.070312 56.195312 128.605469 53.359375 130.257812 51.449219 Z M 130.257812 51.449219 "/><path style=" stroke:none;fill-rule:nonzero;fill:#171414;fill-opacity:1;" d="M 132.683594 55.320312 C 132.613281 55.320312 132.542969 55.308594 132.472656 55.28125 C 132.175781 55.167969 132.03125 54.832031 132.144531 54.535156 C 132.90625 52.59375 134.8125 51.902344 136.257812 52.085938 C 136.574219 52.125 136.796875 52.410156 136.757812 52.726562 C 136.71875 53.042969 136.421875 53.265625 136.113281 53.230469 C 135.382812 53.136719 133.835938 53.382812 133.21875 54.953125 C 133.132812 55.183594 132.914062 55.320312 132.683594 55.320312 Z M 132.683594 55.320312 "/><path style=" stroke:none;fill-rule:nonzero;fill:#eb4f28;fill-opacity:1;" d="M 86.367188 16.203125 C 88.085938 17.121094 90.253906 18.695312 90.328125 20.640625 C 90.371094 21.742188 90.066406 22.367188 89.316406 23.300781 C 88.40625 24.441406 87.042969 25.605469 85.953125 26.578125 C 85.582031 26.910156 85.179688 27.238281 84.703125 27.382812 C 83.9375 27.613281 83.09375 27.335938 82.460938 26.851562 C 81.828125 26.367188 81.371094 25.695312 80.917969 25.039062 C 80.46875 24.378906 80.003906 23.679688 79.933594 22.882812 C 79.816406 21.59375 80.757812 20.46875 81.664062 19.542969 C 82.8125 18.378906 84.015625 17.261719 86.367188 16.203125 Z M 86.367188 16.203125 "/><path style=" stroke:none;fill-rule:nonzero;fill:#eb4f28;fill-opacity:1;" d="M 131.023438 18.171875 C 130.0625 18.425781 129.105469 18.796875 128.367188 19.464844 C 127.628906 20.128906 127.144531 21.136719 127.304688 22.117188 C 127.488281 23.253906 128.441406 24.085938 129.335938 24.8125 C 130.25 25.554688 131.164062 26.296875 132.074219 27.039062 C 132.585938 27.453125 133.121094 27.878906 133.765625 28.007812 C 135.148438 28.285156 136.378906 27.121094 137.21875 25.988281 C 137.71875 25.316406 138.195312 24.566406 138.203125 23.730469 C 138.214844 22.617188 137.390625 21.675781 136.523438 20.980469 C 134.941406 19.71875 133.027344 18.875 131.023438 18.171875 Z M 131.023438 18.171875 "/><g clip-rule="nonzero" clip-path="url(#b173cd4160)"><path style=" stroke:none;fill-rule:nonzero;fill:#171414;fill-opacity:1;" d="M 141.992188 1.648438 C 138.398438 0.136719 134.53125 0.894531 131.855469 1.996094 C 129.179688 3.097656 126.832031 5.21875 125.9375 7.972656 C 124.835938 11.355469 126.066406 15.097656 127.988281 18.089844 C 130.363281 21.792969 134.011719 24.890625 138.34375 25.667969 C 148.328125 27.460938 151.453125 18.636719 151.578125 14.597656 C 151.8125 6.953125 147.195312 3.835938 141.992188 1.648438 Z M 141.992188 1.648438 "/></g><path style=" stroke:none;fill-rule:nonzero;fill:#171414;fill-opacity:1;" d="M 73.234375 3.433594 C 76.492188 1.292969 80.429688 1.332031 83.261719 1.925781 C 86.09375 2.519531 88.792969 4.175781 90.175781 6.71875 C 91.875 9.84375 91.351562 13.746094 90.007812 17.042969 C 88.347656 21.117188 85.328125 24.828125 81.207031 26.382812 C 71.722656 29.96875 67.039062 21.863281 66.175781 17.914062 C 64.550781 10.441406 68.519531 6.535156 73.234375 3.433594 Z M 73.234375 3.433594 "/><g style="fill:#000000;fill-opacity:1;"><g transform="translate(112.43999, 37.662446)"><path style="stroke:none" d="M 1.5625 -1.09375 C 1.5625 -1.550781 1.664062 -1.898438 1.875 -2.140625 C 2.09375 -2.378906 2.394531 -2.5 2.78125 -2.5 C 3.1875 -2.5 3.5 -2.378906 3.71875 -2.140625 C 3.9375 -1.898438 4.046875 -1.550781 4.046875 -1.09375 C 4.046875 -0.644531 3.929688 -0.300781 3.703125 -0.0625 C 3.484375 0.175781 3.175781 0.296875 2.78125 0.296875 C 2.4375 0.296875 2.144531 0.191406 1.90625 -0.015625 C 1.675781 -0.234375 1.5625 -0.59375 1.5625 -1.09375 Z M 1.5625 -1.09375 "/></g></g></g></svg>