<svg xmlns="http://www.w3.org/2000/svg" fill="none" viewBox="-0.375 -0.7409 30 30" id="Star--Streamline-Stickies" height="30" width="30">
  <desc>
    Star Streamline Icon: https://streamlinehq.com
  </desc>
  <path fill="#ffe236" stroke="#231f20" stroke-miterlimit="10" d="M27.280975609756098 9.873658536585365c-1.3918006097560975 -0.6579823170731707 -2.8612207317073173 -1.1373256097560975 -4.373231707317073 -1.4268292682926829 -1.1367548780487804 -0.2245829268292683 -2.2884201219512192 -0.3652682926829268 -3.4457926829268293 -0.42091463414634145 -0.39879878048780487 -1.0129346341463414 -0.8757878048780487 -1.9932733536585365 -1.4268292682926829 -2.9321270121951217 -0.7321774390243903 -1.3529195121951219 -1.630937195121951 -2.6088003658536585 -2.6753048780487805 -3.7382926829268293 -0.3266725609756097 -0.30646865853658534 -0.7577890243902439 -0.4770389634146341 -1.205670731707317 -0.4770389634146341 -0.44788170731707316 0 -0.8789981707317073 0.17057030487804878 -1.205670731707317 0.4770389634146341 -1.0443676829268291 1.1399010365853657 -1.9430560975609754 2.405213231707317 -2.6753048780487805 3.7668292682926827 -0.5253585365853659 0.9507676829268292 -0.9877225609756097 1.9350230487804878 -1.3840243902439024 2.946395304878049 -1.094164024390244 0.05928475609756097 -2.181914451219512 0.20482134146341463 -3.253170731707317 0.4351829268292683 -1.5118611585365853 0.2815134146341463 -2.983136158536585 0.7487286585365854 -4.380365853658536 1.3911585365853658 -0.38532951219512196 0.22365548780487804 -0.6725388292682927 0.5840012195121951 -0.8046810548780488 1.0094817073170732 -0.13214222560975608 0.42548048780487807 -0.09956628658536584 0.8851335365853658 0.0912678475609756 1.2877134146341462C1.2913304268292682 13.534331707317072 2.2043656097560973 14.77802743902439 3.2603048780487804 15.894878048780487c0.7545073170731708 0.8047317073170731 1.5599453048780485 1.5600951219512194 2.411341463414634 2.261524390243902 -0.3228557926829268 1.1322603658536585 -0.5495718292682926 2.2897042682926827 -0.6777439024390244 3.4600609756097556 -0.19083841463414633 1.5231402439024389 -0.19083841463414633 3.0641158536585364 0 4.587256097560975 0.08362646341463414 0.441675 0.3322086585365854 0.8349091463414633 0.6952725 1.0999426829268293 0.3630567073170732 0.26496219512195124 0.8133711585365853 0.3818908536585366 1.2594835975609755 0.32688658536585363 1.5063036585365854 -0.293855487804878 2.970444512195122 -0.7731274390243903 4.358963414634147 -1.4268292682926829 0.9831567073170732 -0.4682853658536585 1.9362073170731706 -0.997210975609756 2.8536585365853657 -1.583780487804878 0.9156676829268293 0.5895658536585365 1.8689323170731706 1.1186341463414633 2.8536585365853657 1.583780487804878 1.3881621951219512 0.6546292682926829 2.8523743902439023 1.1339725609756097 4.358963414634147 1.4268292682926829 0.44609817073170727 0.05500426829268293 0.8964054878048779 -0.061924390243902436 1.2594621951219511 -0.32688658536585363 0.3630567073170732 -0.2650335365853658 0.6116817073170732 -0.6582676829268292 0.6952939024390243 -1.0999426829268293 0.19083841463414633 -1.5231402439024389 0.19083841463414633 -3.0641158536585364 0 -4.587256097560975 -0.11771341463414633 -1.1200609756097561 -0.3228201219512195 -2.2292780487804875 -0.6135365853658536 -3.317378048780488 0.9332176829268293 -0.7330335365853659 1.7998024390243903 -1.547110975609756 2.589695121951219 -2.4327439024390243 1.0550689024390245 -1.119276219512195 1.9701658536585365 -2.362543902439024 2.7252439024390243 -3.702621951219512 0.18926890243902436 -0.4055048780487805 0.21716341463414635 -0.8677975609756097 0.07804756097560975 -1.2930640243902438 -0.13911585365853657 -0.4252664634146341 -0.43482621951219513 -0.781759756097561 -0.8271329268292682 -0.9969969512195122Z" stroke-width="0.75"></path>
  <path stroke="#ffffff" stroke-linecap="round" stroke-miterlimit="10" d="M15.352682926829267 4.166348597560976C16.037132926829266 5.123743902439024 16.62955243902439 6.143705670731706 17.121951219512194 7.2126219512195116" stroke-width="0.75"></path>
</svg>