<svg xmlns="http://www.w3.org/2000/svg" xmlns:xlink="http://www.w3.org/1999/xlink" width="300" zoomAndPan="magnify" viewBox="0 0 224.87999 225" height="300" preserveAspectRatio="xMidYMid meet" version="1.2"><defs><clipPath id="03e1a3526c"><path d="M 187 154 L 211.527344 154 L 211.527344 186 L 187 186 Z M 187 154 "/></clipPath><clipPath id="22ad8c3bb7"><path d="M 26 0.0585938 L 117 0.0585938 L 117 90 L 26 90 Z M 26 0.0585938 "/></clipPath><clipPath id="65f1643e40"><path d="M 51 0.0585938 L 71 0.0585938 L 71 89 L 51 89 Z M 51 0.0585938 "/></clipPath></defs><g id="d55a2bffe1"><path style=" stroke:none;fill-rule:nonzero;fill:#d6d4d2;fill-opacity:1;" d="M 85.621094 212.835938 C 87.523438 214.308594 89.785156 215.234375 92.042969 216.0625 C 114.113281 224.179688 138.863281 224.824219 161.328125 217.871094 C 166.433594 216.289062 177.980469 211.96875 176.542969 206.808594 C 175.914062 204.550781 173.132812 203.816406 170.8125 203.46875 C 100.882812 192.957031 99.296875 191.921875 92.011719 194.175781 C 84.351562 196.550781 77.738281 206.734375 85.621094 212.835938 Z M 85.621094 212.835938 "/><path style=" stroke:none;fill-rule:nonzero;fill:#ff9cc9;fill-opacity:1;" d="M 177.4375 40.773438 C 177.757812 39.179688 182.351562 38.214844 183.925781 37.890625 C 186.644531 37.335938 186.351562 36.535156 186.933594 34.148438 C 187.265625 32.785156 187.601562 31.417969 187.933594 30.054688 C 188.167969 29.101562 189.261719 27.160156 190.488281 27.34375 C 191.316406 27.46875 191.636719 28.476562 191.78125 29.304688 C 192.144531 31.414062 192.714844 33.511719 193.070312 35.613281 C 193.28125 36.851562 192.828125 38.316406 193.832031 39.269531 C 195.144531 40.519531 199.832031 41.480469 201.105469 42.847656 C 201.671875 43.453125 201.933594 44.429688 201.480469 45.125 C 200.285156 46.964844 196.621094 45.457031 194.914062 46.3125 C 190.625 48.46875 191.089844 55.292969 190.363281 56.964844 C 189.855469 58.125 188.433594 59.046875 187.328125 58.433594 C 185.246094 57.269531 185.96875 51.160156 185.570312 48.023438 C 185.40625 46.738281 184.894531 45.453125 183.917969 44.601562 C 182.71875 43.554688 181.046875 43.316406 179.511719 42.890625 C 178.457031 42.597656 177.21875 41.839844 177.4375 40.773438 Z M 177.4375 40.773438 "/><path style=" stroke:none;fill-rule:nonzero;fill:#1cd8e4;fill-opacity:1;" d="M 26.703125 136.75 C 29.710938 135.40625 31.9375 135.578125 32.949219 134.769531 C 33.628906 134.222656 33.476562 134.042969 34.902344 128.203125 C 35.117188 127.324219 36.125 125.535156 37.253906 125.703125 C 38.019531 125.820312 38.3125 126.75 38.445312 127.507812 C 38.78125 129.457031 39.304688 131.386719 39.636719 133.320312 C 39.984375 135.378906 38.902344 136.394531 42.085938 137.660156 C 45.613281 139.0625 46.371094 139.277344 47.035156 139.984375 C 47.558594 140.542969 47.796875 141.441406 47.382812 142.082031 C 46.28125 143.777344 42.90625 142.386719 41.332031 143.179688 C 37.382812 145.164062 37.808594 151.449219 37.140625 152.988281 C 36.675781 154.058594 35.363281 154.90625 34.347656 154.339844 C 32.425781 153.269531 33.089844 147.640625 32.726562 144.753906 C 32.574219 143.570312 32.105469 142.382812 31.207031 141.597656 C 30.101562 140.636719 28.558594 140.417969 27.148438 140.027344 C 25.09375 139.453125 24.277344 137.832031 26.703125 136.75 Z M 26.703125 136.75 "/><g clip-rule="nonzero" clip-path="url(#03e1a3526c)"><path style=" stroke:none;fill-rule:nonzero;fill:#ffd04d;fill-opacity:1;" d="M 187.339844 167.617188 C 187.765625 165.507812 194.445312 165 195.59375 164.082031 C 196.320312 163.5 196.160156 163.304688 197.683594 157.054688 C 197.914062 156.117188 198.992188 154.203125 200.199219 154.382812 C 201.019531 154.507812 201.332031 155.5 201.472656 156.316406 C 201.835938 158.398438 202.394531 160.460938 202.746094 162.53125 C 203.121094 164.734375 201.964844 165.824219 205.367188 167.175781 C 209.144531 168.675781 209.953125 168.902344 210.664062 169.664062 C 211.222656 170.261719 211.480469 171.21875 211.035156 171.90625 C 209.855469 173.71875 206.246094 172.234375 204.5625 173.078125 C 200.335938 175.203125 200.792969 181.925781 200.078125 183.574219 C 199.578125 184.71875 198.179688 185.628906 197.089844 185.019531 C 195.035156 183.871094 195.746094 177.855469 195.355469 174.761719 C 195.195312 173.496094 194.691406 172.226562 193.726562 171.390625 C 192.546875 170.359375 190.898438 170.125 189.386719 169.707031 C 188.34375 169.417969 187.128906 168.671875 187.339844 167.617188 Z M 187.339844 167.617188 "/></g><path style=" stroke:none;fill-rule:nonzero;fill:#55cd69;fill-opacity:1;" d="M 63.226562 144.320312 C 56.160156 126.148438 56.042969 104.554688 70.109375 89.613281 C 75.058594 84.359375 79.132812 86.144531 80.394531 90.152344 C 81.832031 94.722656 79.304688 98.265625 85.707031 106.976562 C 91.195312 114.445312 97.902344 116.351562 99.34375 128.722656 C 100.386719 137.714844 97.554688 146.574219 92.535156 152.871094 C 91.335938 154.378906 89.882812 155.480469 88.320312 156.175781 C 85.816406 157.289062 83.425781 158.664062 80.605469 158.339844 C 73.445312 157.539062 66.664062 153.164062 63.226562 144.320312 Z M 63.226562 144.320312 "/><path style=" stroke:none;fill-rule:nonzero;fill:#3aba4d;fill-opacity:1;" d="M 93.035156 138.242188 C 86.355469 135.316406 81.191406 131.855469 77.695312 124.484375 C 74.1875 117.101562 73.355469 109.386719 72.175781 100.773438 C 72.015625 99.652344 73.707031 99.414062 73.867188 100.53125 C 75.007812 108.839844 75.84375 116.589844 79.242188 123.75 C 82.515625 130.644531 87.398438 133.902344 93.722656 136.671875 C 94.75 137.125 94.085938 138.6875 93.035156 138.242188 Z M 93.035156 138.242188 "/><path style=" stroke:none;fill-rule:nonzero;fill:#3aba4d;fill-opacity:1;" d="M 78.714844 149.109375 C 68.335938 141.570312 68.144531 129.089844 68.839844 116.953125 C 68.90625 115.773438 70.617188 115.949219 70.554688 117.050781 C 69.714844 131.652344 70.945312 141.351562 79.726562 147.726562 C 80.632812 148.386719 79.636719 149.769531 78.714844 149.109375 Z M 78.714844 149.109375 "/><path style=" stroke:none;fill-rule:nonzero;fill:#83e290;fill-opacity:1;" d="M 176.804688 203.480469 C 177.195312 206.808594 175.394531 210 172.304688 211.304688 C 150.28125 220.605469 126.328125 222.285156 103.246094 216.304688 C 99.886719 215.441406 96.566406 214.414062 93.308594 213.230469 C 90.503906 212.210938 86.992188 211.261719 84.550781 209.578125 C 71.414062 200.511719 68.351562 167.65625 74.585938 155.59375 C 74.601562 155.496094 74.636719 155.46875 74.71875 155.378906 C 82.667969 144.582031 95.59375 142.496094 108.566406 138.683594 C 112.265625 137.597656 115.46875 137.097656 118.550781 135.050781 C 123.296875 131.9375 125.800781 127.839844 125.96875 122.285156 C 126.03125 119.734375 124.578125 117.546875 124.019531 115.367188 C 123.46875 113.121094 122.980469 110.488281 124.144531 108.808594 C 125.3125 107.0625 126.300781 106.71875 128.058594 106.09375 C 138.175781 102.726562 148.011719 103.722656 158.96875 106.117188 C 170.515625 108.679688 178.582031 111.996094 178.5625 123.222656 C 178.570312 131.695312 176.714844 135.0625 175.636719 142.40625 C 174.476562 156.28125 172.96875 164.917969 174.042969 174.355469 C 174.972656 182.308594 175.785156 196.992188 176.804688 203.480469 Z M 176.804688 203.480469 "/><path style=" stroke:none;fill-rule:nonzero;fill:#ffffff;fill-opacity:0.56;" d="M 83.722656 209.210938 C 81.734375 207.203125 79.898438 205.351562 77.914062 203.34375 C 72.050781 191.414062 67.945312 167.570312 74.273438 155.875 L 74.4375 155.902344 C 85.945312 157.425781 95.046875 169.242188 97.945312 178.398438 C 100.011719 184.96875 101.351562 190.605469 102.171875 196.09375 C 103.667969 206.09375 93.402344 213.84375 83.722656 209.210938 Z M 83.722656 209.210938 "/><path style=" stroke:none;fill-rule:nonzero;fill:#83e290;fill-opacity:1;" d="M 192.230469 128.75 C 189.445312 125.605469 186.738281 124.898438 182.597656 125.53125 C 182.398438 125.5625 182.199219 125.558594 181.953125 125.652344 C 177.089844 127.476562 171.523438 130.34375 168.222656 134.515625 C 166.910156 136.179688 164.242188 139.285156 162.066406 139.683594 C 159.890625 140.082031 158.554688 139.273438 157.1875 138.339844 C 148.628906 132.5 141.980469 124.949219 136.59375 116.628906 C 133.941406 112.523438 129.683594 114.5625 129.890625 110.203125 C 130.09375 105.847656 133.460938 97.777344 134.667969 93.515625 C 135.875 89.253906 134.164062 85.53125 139.871094 82.667969 C 151.820312 76.675781 169.957031 74.175781 183.882812 76.574219 C 184.867188 76.742188 185.238281 77.101562 186.113281 77.320312 C 179.554688 77.613281 174.34375 78.019531 167.671875 79.578125 C 160.996094 81.140625 152.171875 83.636719 147.023438 88.835938 C 153.136719 86.785156 159.386719 85.078125 165.832031 84.238281 C 172.273438 83.398438 177.773438 83.375 183.65625 86.070312 C 183.789062 86.128906 184.019531 86.210938 183.90625 86.207031 C 179.144531 86.125 176.667969 87.507812 173.632812 91.3125 C 178.351562 89.902344 181.976562 89.058594 186.738281 90.515625 C 190.238281 91.589844 196.011719 96.125 199.683594 103.632812 C 196.898438 100.53125 194.007812 98.851562 189.839844 98.699219 C 187.070312 98.597656 183.34375 102.101562 181.542969 103.804688 C 182.613281 103.808594 183.210938 103.269531 184.367188 103.582031 C 191.0625 105.394531 193.683594 110.632812 195.476562 116.996094 C 195.136719 116.917969 194.59375 116.503906 194.453125 116.257812 C 194.308594 116.007812 194.464844 116.171875 194.394531 116.152344 C 191.660156 114.339844 189.097656 113.410156 185.789062 113.429688 C 191.605469 116.828125 192.546875 121.96875 192.230469 128.75 Z M 192.230469 128.75 "/><path style=" stroke:none;fill-rule:nonzero;fill:#55cd69;fill-opacity:1;" d="M 125.679688 97.960938 C 122.128906 94.582031 118.90625 94.316406 114.375 98.785156 C 110.097656 103 106.921875 108.835938 105.527344 115.054688 C 104.25 120.753906 105.519531 123.089844 109.117188 125.433594 C 113.371094 128.207031 121.8125 132.339844 126.765625 129.753906 C 134.480469 125.722656 136.6875 108.433594 125.679688 97.960938 Z M 125.679688 97.960938 "/><path style=" stroke:none;fill-rule:nonzero;fill:#ffffff;fill-opacity:1;" d="M 114.347656 142.257812 C 107.082031 138.683594 108.460938 125.160156 108.953125 116.695312 C 109.285156 110.933594 112.390625 101.714844 117.925781 100.347656 C 119.835938 99.847656 121.769531 100.25 123.410156 101.234375 C 127.234375 103.582031 128.910156 108.285156 129.539062 112.722656 C 130.6875 120.707031 125.835938 147.964844 114.347656 142.257812 Z M 114.347656 142.257812 "/><path style=" stroke:none;fill-rule:nonzero;fill:#000000;fill-opacity:1;" d="M 109.164062 123.441406 C 108.96875 123.410156 108.808594 123.386719 108.617188 123.324219 C 108.679688 121.007812 108.835938 118.738281 108.953125 116.695312 C 109.285156 110.933594 112.390625 101.714844 117.925781 100.347656 C 119.835938 99.847656 121.769531 100.25 123.410156 101.234375 C 127.253906 112.238281 119.1875 125 109.164062 123.441406 Z M 109.164062 123.441406 "/><path style=" stroke:none;fill-rule:nonzero;fill:#55cd69;fill-opacity:1;" d="M 179.421875 92.265625 C 173.441406 95.410156 166.28125 98.773438 159.726562 101.328125 C 162.253906 91.101562 173.890625 86.46875 183.671875 86.097656 C 183.78125 86.089844 184.027344 86.21875 183.910156 86.214844 C 179.128906 86.113281 176.671875 87.511719 173.628906 91.316406 C 178.386719 89.871094 181.90625 89.128906 186.78125 90.46875 C 183.753906 90.75 182.4375 90.679688 179.421875 92.265625 Z M 179.421875 92.265625 "/><path style=" stroke:none;fill-rule:nonzero;fill:#55cd69;fill-opacity:1;" d="M 160.800781 85.546875 C 151.253906 89.183594 148.691406 90.363281 145.703125 99.351562 C 141.214844 86.371094 144.800781 85.8125 157.625 81.140625 C 164.101562 78.78125 169.089844 77.925781 175.554688 76.84375 C 178.292969 76.382812 181.207031 76.832031 183.949219 76.625 C 184.839844 76.554688 185.253906 77.222656 186.101562 77.304688 C 179.5625 77.632812 174.335938 78.015625 167.675781 79.578125 C 161.015625 81.140625 152.160156 83.601562 147.058594 88.847656 C 153.007812 86.617188 159.335938 85.246094 165.617188 84.203125 C 164.132812 84.625 162.175781 85.023438 160.800781 85.546875 Z M 160.800781 85.546875 "/><path style=" stroke:none;fill-rule:nonzero;fill:#55cd69;fill-opacity:1;" d="M 184.316406 103.519531 C 179.964844 104.402344 176.066406 106.679688 171.71875 107.707031 C 177.027344 104.554688 182.21875 98.636719 188.496094 98.875 C 185.71875 99.945312 183.652344 101.746094 181.558594 103.820312 C 182.476562 103.632812 183.375 103.519531 184.316406 103.519531 Z M 184.316406 103.519531 "/><path style=" stroke:none;fill-rule:nonzero;fill:#55cd69;fill-opacity:1;" d="M 185.785156 113.445312 C 188.679688 114.902344 190.214844 117.121094 191.445312 120.058594 C 190.695312 119.066406 190.410156 118.007812 189.371094 117.191406 C 184.632812 113.476562 180.726562 114.28125 174.988281 114.652344 C 182.972656 112.886719 187.382812 110.753906 194.394531 116.140625 C 191.652344 114.347656 189.089844 113.386719 185.785156 113.445312 Z M 185.785156 113.445312 "/><path style=" stroke:none;fill-rule:nonzero;fill:#fcc45c;fill-opacity:1;" d="M 87.328125 149.246094 C 97.816406 146.492188 109.960938 156.433594 119.15625 158.324219 C 123.289062 159.160156 127.464844 158.929688 130.960938 157.339844 C 134.460938 155.71875 136.003906 152.929688 137.925781 149.296875 C 138.898438 147.457031 139.1875 145.246094 139.699219 143.222656 C 139.898438 142.429688 139.902344 141.6875 139.972656 140.921875 C 128.394531 150.691406 120.28125 143.296875 111.585938 140.425781 C 106.304688 138.714844 99.800781 136.988281 94.1875 137.046875 C 89.722656 137.179688 84.917969 142.019531 87.328125 149.246094 Z M 87.328125 149.246094 "/><path style=" stroke:none;fill-rule:nonzero;fill:#ff841f;fill-opacity:0.55;" d="M 87.328125 149.246094 C 87.722656 149.140625 88.140625 149.039062 88.535156 148.964844 C 91.917969 146 96.457031 145.488281 100.902344 146.519531 C 110.152344 148.65625 124.851562 160.5625 134.332031 153.515625 C 137.589844 151.089844 138.542969 147.777344 139.699219 143.222656 C 139.898438 142.429688 139.902344 141.6875 139.972656 140.921875 C 128.394531 150.691406 120.28125 143.296875 111.585938 140.425781 C 106.304688 138.714844 99.800781 136.988281 94.1875 137.046875 C 89.722656 137.179688 84.917969 142.019531 87.328125 149.246094 Z M 87.328125 149.246094 "/><path style=" stroke:none;fill-rule:nonzero;fill:#fcc45c;fill-opacity:1;" d="M 119.441406 149.761719 C 125.113281 151.515625 132.632812 153.011719 136.570312 148.304688 C 141.316406 142.628906 143.578125 132.53125 143.246094 124.625 C 142.632812 109.984375 133.066406 111.5 123.996094 111.027344 C 114.925781 110.554688 104.011719 111.96875 94.382812 113.347656 C 76.132812 115.957031 73.765625 127.375 78.621094 144.960938 C 79.136719 146.824219 79.777344 149.167969 80.859375 150.761719 C 81.941406 152.351562 83.132812 153.671875 84.726562 153.863281 C 87.960938 154.253906 86.109375 148.191406 92.078125 143.660156 C 95.382812 141.15625 96.546875 141.421875 101.167969 142.636719 C 107.292969 144.25 113.769531 148.007812 119.441406 149.761719 Z M 119.441406 149.761719 "/><path style=" stroke:none;fill-rule:nonzero;fill:#ffd188;fill-opacity:0.67;" d="M 95.414062 116.75 C 103.792969 115.347656 111.140625 114.851562 119.386719 114.136719 C 122.335938 113.882812 125.878906 113.507812 128.625 115.253906 C 134.25 118.835938 132.691406 127.878906 128.46875 132.183594 C 126.355469 134.335938 124.6875 133.945312 121.710938 133.828125 C 103.511719 133.101562 96.699219 129.375 85.855469 131.191406 C 83.917969 131.515625 83.117188 132.582031 81.996094 133.652344 C 80.871094 134.71875 81.695312 138.292969 80.070312 137.148438 C 72.894531 132.089844 81.03125 122.222656 83.800781 120.675781 C 88.683594 117.945312 91.394531 117.421875 95.414062 116.75 Z M 95.414062 116.75 "/><path style=" stroke:none;fill-rule:nonzero;fill:#ffffff;fill-opacity:1;" d="M 169.167969 132.144531 C 167.3125 140.195312 158.566406 157.644531 147.644531 153.417969 C 138.820312 150.050781 136.667969 139.550781 137.527344 131.042969 C 138.226562 122.96875 144.445312 115.671875 151.453125 111.3125 C 155.046875 109.09375 157.613281 107.414062 161.507812 109.15625 C 167.035156 111.691406 171.945312 120.175781 169.167969 132.144531 Z M 169.167969 132.144531 "/><path style=" stroke:none;fill-rule:nonzero;fill:#55cd69;fill-opacity:1;" d="M 140.679688 216.960938 C 149.632812 216.894531 158.257812 213.828125 166.679688 210.800781 C 168.664062 210.089844 170.738281 209.320312 172.140625 207.746094 C 173.539062 206.171875 173.984375 203.53125 172.519531 202.015625 C 171.449219 200.90625 169.773438 200.726562 168.285156 200.320312 C 164.5625 199.296875 161.71875 194.046875 160.261719 190.820312 C 156.164062 181.742188 157.667969 173.015625 147.203125 167.210938 C 136.847656 161.472656 122.640625 164.867188 117.136719 171.492188 C 114.929688 174.148438 112.539062 176.582031 111.476562 180.09375 C 105.589844 199.363281 120.800781 217.109375 140.679688 216.960938 Z M 140.679688 216.960938 "/><path style=" stroke:none;fill-rule:nonzero;fill:#3aba4d;fill-opacity:1;" d="M 155.789062 206.976562 C 148.617188 202.699219 145.632812 201.128906 140.632812 194.4375 C 135.671875 187.796875 135.03125 180.457031 135.601562 171.484375 C 135.667969 170.34375 137.382812 170.464844 137.308594 171.589844 C 136.769531 180.1875 137.355469 187.191406 142.007812 193.414062 C 146.851562 199.894531 149.613281 201.300781 156.671875 205.507812 C 157.644531 206.09375 156.75 207.5625 155.789062 206.976562 Z M 155.789062 206.976562 "/><path style=" stroke:none;fill-rule:nonzero;fill:#3aba4d;fill-opacity:1;" d="M 143.289062 207.675781 C 131.949219 204.511719 120.722656 200.15625 118.910156 185.128906 C 118.777344 184.027344 120.476562 183.757812 120.609375 184.925781 C 122.140625 197.597656 130.253906 202.257812 143.75 206.027344 C 144.84375 206.335938 144.378906 207.984375 143.289062 207.675781 Z M 143.289062 207.675781 "/><path style=" stroke:none;fill-rule:nonzero;fill:#000000;fill-opacity:1;" d="M 163.289062 123.121094 C 161.957031 131.652344 155.257812 137.691406 148.273438 136.601562 C 143.464844 135.855469 139.824219 131.898438 138.433594 126.730469 C 140.570312 120.285156 145.816406 114.820312 151.453125 111.3125 C 154.03125 109.71875 156.179688 108.328125 158.65625 108.445312 C 162.285156 111.636719 164.214844 117.1875 163.289062 123.121094 Z M 163.289062 123.121094 "/><g clip-rule="nonzero" clip-path="url(#22ad8c3bb7)"><path style=" stroke:none;fill-rule:nonzero;fill:#ff841f;fill-opacity:1;" d="M 71.578125 89.152344 C 48.113281 89.152344 36.511719 72.015625 36.167969 71.753906 C 13.59375 42.601562 34.675781 -0.0507812 71.578125 -0.0507812 C 93.644531 -0.0507812 112.03125 16.003906 115.570312 36.949219 C 115.636719 37.3125 115.703125 37.707031 115.734375 38.066406 C 119.882812 64.578125 99.019531 89.152344 71.578125 89.152344 Z M 71.578125 89.152344 "/></g><path style=" stroke:none;fill-rule:nonzero;fill:#fc6500;fill-opacity:0.44;" d="M 71.578125 89.152344 C 49.777344 89.152344 32.476562 73.761719 28.113281 54.84375 C 43.253906 82.660156 90.113281 78.691406 93.144531 27.890625 C 93.605469 20.335938 93.144531 12.785156 92.652344 5.234375 C 104.742188 11.707031 113.285156 23.421875 115.570312 36.949219 C 115.636719 37.3125 115.703125 37.707031 115.734375 38.066406 C 119.882812 64.578125 99.019531 89.152344 71.578125 89.152344 Z M 71.578125 89.152344 "/><g clip-rule="nonzero" clip-path="url(#65f1643e40)"><path style=" stroke:none;fill-rule:nonzero;fill:#ed6000;fill-opacity:1;" d="M 66.679688 88.199219 C 66.84375 88.398438 66.910156 88.660156 66.8125 88.890625 C 66.1875 88.824219 65.59375 88.757812 65.003906 88.660156 C 45.917969 63.140625 46.039062 25.746094 68.914062 0.046875 C 69.507812 -0.0195312 70.097656 -0.0195312 70.691406 -0.0195312 C 70.757812 0.210938 70.691406 0.507812 70.492188 0.738281 C 47.671875 26.054688 47.617188 63.148438 66.679688 88.199219 Z M 66.679688 88.199219 "/></g><path style=" stroke:none;fill-rule:nonzero;fill:#ed6000;fill-opacity:1;" d="M 98.703125 9.140625 C 91.390625 7.019531 82.503906 8.273438 75.359375 13.835938 C 68.890625 19.003906 63.710938 26.378906 55.925781 26.476562 C 55.09375 26.371094 53.015625 26.582031 50.503906 24.933594 C 46.328125 22.175781 43.5 14.460938 44.683594 9.011719 C 44.683594 8.976562 44.714844 8.945312 44.714844 8.910156 C 44.847656 8.582031 45.144531 8.355469 45.472656 8.355469 C 45.539062 8.355469 45.570312 8.386719 45.636719 8.386719 C 46.097656 8.484375 46.359375 8.910156 46.261719 9.371094 C 45.175781 14.460938 48.167969 21.421875 51.390625 23.554688 C 55.152344 25.945312 59.671875 24.671875 63.292969 22.144531 C 67.089844 19.519531 70.453125 15.617188 74.339844 12.554688 C 80.421875 7.828125 87.886719 5.792969 95.382812 6.8125 C 96.53125 7.53125 97.652344 8.320312 98.703125 9.140625 Z M 98.703125 9.140625 "/><path style=" stroke:none;fill-rule:nonzero;fill:#ed6000;fill-opacity:1;" d="M 115.4375 38.328125 C 87.613281 52.023438 55.363281 53.867188 26.898438 44.273438 C 26.898438 43.714844 26.929688 43.121094 26.960938 42.566406 C 26.996094 42.566406 27.0625 42.566406 27.09375 42.597656 C 54.59375 51.945312 86.691406 50.675781 114.714844 36.851562 C 115.011719 36.71875 115.371094 36.753906 115.570312 36.949219 C 115.703125 37.015625 115.765625 37.113281 115.800781 37.214844 C 115.988281 37.636719 115.839844 38.128906 115.4375 38.328125 Z M 115.4375 38.328125 "/><path style=" stroke:none;fill-rule:nonzero;fill:#ed6000;fill-opacity:1;" d="M 37.089844 72.902344 C 38.144531 72.691406 45.066406 63.089844 54.644531 62.492188 C 64.023438 62.046875 68.855469 70.558594 75.621094 76.085938 C 83.390625 82.425781 95.773438 80.964844 103.40625 75.265625 C 104.25 74.648438 103.324219 73.292969 102.417969 73.953125 C 95.179688 79.363281 83.625 80.527344 76.675781 74.804688 C 68.871094 68.484375 57.613281 48.785156 36.300781 71.554688 C 36.265625 71.621094 36.199219 71.6875 36.167969 71.753906 Z M 37.089844 72.902344 "/><path style=" stroke:none;fill-rule:nonzero;fill:#ffd188;fill-opacity:0.67;" d="M 41.621094 24.652344 C 44.371094 17.507812 37.429688 21.164062 35.167969 24.5625 C 32.902344 27.964844 32.113281 32.390625 31.808594 36.277344 C 31.691406 37.769531 31.945312 39.648438 33.363281 40.136719 C 36.773438 41.308594 40.632812 27.210938 41.621094 24.652344 Z M 41.621094 24.652344 "/><path style=" stroke:none;fill-rule:nonzero;fill:#ffd188;fill-opacity:0.67;" d="M 35.570312 59.671875 C 39.441406 61.160156 37.8125 53.324219 37.078125 51.515625 C 36.816406 50.875 36.449219 50.207031 35.804688 49.953125 C 34.574219 49.46875 33.375 50.8125 33.007812 52.082031 C 32.472656 53.9375 33.597656 58.917969 35.570312 59.671875 Z M 35.570312 59.671875 "/><g style="fill:#000000;fill-opacity:1;"><g transform="translate(150.977333, 120.42605)"><path style="stroke:none" d="M 1.5625 -1.09375 C 1.5625 -1.550781 1.664062 -1.898438 1.875 -2.140625 C 2.09375 -2.378906 2.394531 -2.5 2.78125 -2.5 C 3.1875 -2.5 3.5 -2.378906 3.71875 -2.140625 C 3.9375 -1.898438 4.046875 -1.550781 4.046875 -1.09375 C 4.046875 -0.644531 3.929688 -0.300781 3.703125 -0.0625 C 3.484375 0.175781 3.175781 0.296875 2.78125 0.296875 C 2.4375 0.296875 2.144531 0.191406 1.90625 -0.015625 C 1.675781 -0.234375 1.5625 -0.59375 1.5625 -1.09375 Z M 1.5625 -1.09375 "/></g></g></g></svg>