<svg xmlns="http://www.w3.org/2000/svg" fill="none" viewBox="0 0 30 30" id="Confirm-User--Streamline-Block-Free" height="30" width="30">
  <desc>
    Confirm User Streamline Icon: https://streamlinehq.com
  </desc>
  <path fill="#ffffff" d="M12.1875 22.5c0 1.323 0.24911250000000001 2.5876875000000004 0.7030125 3.75H0c0 -5.815875 3.78264375 -10.748099999999999 9.02188125 -12.4708875C6.97629375 12.4396875 5.625 10.12764375 5.625 7.5c0 -4.1421375000000005 3.3578625 -7.5 7.5 -7.5s7.5 3.3578625 7.5 7.5c0 1.6525875 -0.5345625 3.1803375000000003 -1.44 4.41980625 -0.5304187499999999 0.7259625000000001 -1.278375 1.23151875 -2.0273625 1.7377875 -0.25635 0.17326875 -0.5128125 0.3466125 -0.7607250000000001 0.52891875C13.84415625 16.0636875 12.1875 19.0884375 12.1875 22.5Z" stroke-width="1.875"></path>
  <path fill="#ffffff" fill-rule="evenodd" d="M30 22.5c0 4.1420625 -3.3579375 7.5 -7.5 7.5 -4.1421375000000005 0 -7.5 -3.3579375 -7.5 -7.5 0 -4.1421375000000005 3.3578625 -7.5 7.5 -7.5 4.1420625 0 7.5 3.3578625 7.5 7.5Zm-2.8125 -1.7611875000000001L25.1986875 18.75l-3.5225625000000003 3.5223750000000003 -1.875 -1.875 -1.9887000000000001 1.9888124999999999L21.6763125 26.25 27.1875 20.7388125Z" clip-rule="evenodd" stroke-width="1.875"></path>
</svg>