<svg xmlns="http://www.w3.org/2000/svg" xmlns:xlink="http://www.w3.org/1999/xlink" width="1000" zoomAndPan="magnify" viewBox="0 0 750 374.999991" height="500" preserveAspectRatio="xMidYMid meet" version="1.2"><defs/><g id="a4647a4252"><path style=" stroke:none;fill-rule:nonzero;fill:#ffffff;fill-opacity:1;" d="M 358.199219 153.992188 C 356.847656 153.992188 355.511719 153.644531 354.34375 152.988281 C 352.625 152.023438 351.378906 150.207031 350.835938 147.875 C 350.371094 145.882812 350.484375 143.746094 351.152344 142.015625 C 352.261719 139.121094 355.882812 137.804688 358.773438 137.804688 C 361.835938 137.804688 364.183594 139.148438 365.054688 141.398438 C 366.167969 144.285156 365.550781 148.753906 363.667969 151.355469 C 362.457031 153.03125 360.464844 153.992188 358.199219 153.992188 Z M 318.070312 157.929688 C 316.714844 157.929688 315.378906 157.582031 314.210938 156.921875 C 312.492188 155.957031 311.25 154.140625 310.703125 151.808594 C 310.238281 149.820312 310.351562 147.683594 311.019531 145.949219 C 312.128906 143.054688 315.75 141.734375 318.640625 141.734375 C 321.703125 141.734375 324.054688 143.082031 324.925781 145.335938 C 326.039062 148.222656 325.417969 152.6875 323.535156 155.289062 C 322.324219 156.964844 320.332031 157.929688 318.070312 157.929688 Z M 446.742188 178.003906 C 444.859375 178.003906 443.441406 176.65625 443.441406 174.871094 C 443.441406 173.085938 444.859375 171.738281 446.738281 171.738281 C 446.957031 171.738281 447.183594 171.757812 447.40625 171.800781 L 447.785156 171.867188 C 449.355469 172.152344 450.066406 173.582031 450.066406 174.871094 C 450.066406 176.160156 449.355469 177.585938 447.78125 177.871094 L 447.457031 177.933594 C 447.1875 177.980469 446.960938 178.003906 446.742188 178.003906 Z M 466.777344 196.960938 C 466.316406 196.960938 465.875 196.828125 465.46875 196.570312 L 465.1875 196.390625 C 464.457031 195.921875 463.980469 195.160156 463.890625 194.304688 C 463.800781 193.492188 464.078125 192.699219 464.65625 192.125 C 465.160156 191.621094 465.832031 191.34375 466.542969 191.34375 C 467.492188 191.34375 468.402344 191.84375 468.921875 192.65625 L 468.609375 193.253906 L 469.105469 192.9375 C 469.601562 193.71875 469.621094 194.648438 469.164062 195.484375 C 468.675781 196.382812 467.738281 196.960938 466.777344 196.960938 Z M 495.597656 204.660156 C 493.535156 204.660156 492.453125 203.035156 492.453125 201.429688 C 492.453125 199.824219 493.535156 198.195312 495.597656 198.195312 C 497.660156 198.195312 498.742188 199.820312 498.742188 201.425781 C 498.742188 203.03125 497.660156 204.660156 495.597656 204.660156 Z M 444.066406 211.082031 C 442.628906 211.082031 441.289062 210.046875 440.878906 208.617188 C 440.414062 207.960938 440.386719 206.96875 440.878906 206.0625 C 441.417969 205.0625 442.480469 204.394531 443.527344 204.394531 C 444.019531 204.394531 444.480469 204.535156 444.902344 204.804688 C 445.886719 205.054688 446.824219 206.003906 447.121094 207.140625 C 447.402344 208.21875 447.089844 209.308594 446.273438 210.128906 C 445.648438 210.753906 444.886719 211.082031 444.066406 211.082031 Z M 468.058594 224.878906 C 466.816406 224.878906 465.78125 224.214844 465.28125 223.101562 C 464.753906 221.921875 464.964844 220.535156 465.824219 219.570312 L 466.132812 219.21875 C 466.585938 218.707031 467.289062 218.414062 468.058594 218.414062 C 468.824219 218.414062 469.527344 218.707031 469.984375 219.222656 L 470.289062 219.570312 C 471.148438 220.535156 471.359375 221.921875 470.832031 223.097656 C 470.328125 224.214844 469.292969 224.878906 468.058594 224.878906 Z M 392.222656 255.851562 C 396.894531 255.851562 401.621094 255.925781 406.378906 256 C 411.191406 256.074219 416.03125 256.148438 420.875 256.148438 C 430.5 256.148438 443.105469 255.882812 455.253906 253.796875 C 473.625 250.644531 490.222656 241.316406 504.589844 226.074219 C 511.472656 218.777344 518.121094 210.5 520.199219 199.40625 C 521.597656 191.925781 521.398438 184.101562 521.203125 176.535156 C 521.203125 176.535156 521.054688 169.789062 521.03125 168.734375 C 518.699219 169.898438 515.628906 170.605469 511.882812 170.839844 C 509.695312 170.980469 507.472656 171.046875 505.28125 171.046875 C 502.429688 171.046875 499.542969 170.929688 496.703125 170.699219 C 486.746094 169.886719 479.363281 167.710938 473.46875 163.863281 C 465.894531 158.914062 459.558594 147.082031 461.816406 136.996094 L 461.5625 137.003906 C 446.339844 137.21875 430.59375 137.441406 415.175781 138.296875 C 414.269531 138.347656 413.335938 138.410156 412.375 138.472656 C 409.761719 138.644531 407.058594 138.824219 404.304688 138.824219 C 398.410156 138.824219 390.015625 138.0625 385.179688 131.476562 C 381.484375 126.445312 381.566406 119.933594 381.640625 114.183594 L 381.65625 112.355469 C 381.730469 98.464844 381.574219 87.726562 381.152344 77.542969 C 381.023438 74.347656 380.839844 71.144531 380.652344 67.9375 C 380.21875 60.394531 379.769531 52.59375 380.046875 44.929688 C 380.101562 43.316406 380.207031 41.636719 380.308594 39.921875 C 380.828125 31.292969 381.417969 21.515625 376.621094 14.351562 C 373.652344 9.914062 369.699219 7.566406 365.191406 7.566406 C 359.304688 7.566406 353.28125 11.78125 350.195312 18.050781 C 348.125 22.246094 346.953125 27.121094 346.496094 33.398438 C 345.972656 40.523438 346.699219 47.738281 347.394531 54.714844 C 347.550781 56.246094 348.109375 61.996094 348.109375 61.996094 C 349.257812 73.523438 351.1875 92.820312 341.585938 99.816406 C 338.316406 102.199219 334.164062 102.476562 331.324219 102.476562 C 329.980469 102.476562 328.644531 102.40625 327.367188 102.332031 C 324.9375 102.1875 322.34375 102.121094 318.953125 102.121094 C 317.496094 102.121094 311.667969 102.167969 310.210938 102.167969 C 306.75 102.167969 304.109375 102.101562 301.640625 101.949219 C 289.949219 101.234375 288.5625 91.503906 287.335938 82.917969 C 285.84375 72.421875 282.757812 65.441406 271.421875 60.820312 C 266.3125 58.738281 261.089844 57.765625 254.988281 57.765625 C 249.125 57.765625 243.238281 58.671875 237 59.625 C 233.351562 60.183594 229.453125 60.445312 225.683594 60.703125 C 218.902344 61.160156 211.890625 61.632812 205.808594 63.800781 C 199.882812 65.910156 195.34375 71.328125 194.527344 77.277344 C 193.847656 82.203125 195.863281 86.613281 200.210938 89.6875 C 203.246094 91.839844 206.539062 92.882812 210.285156 92.882812 C 215.082031 92.882812 219.902344 91.226562 225.007812 89.472656 C 230.085938 87.726562 235.335938 85.925781 240.546875 85.925781 C 243.234375 85.925781 245.683594 86.394531 248.03125 87.355469 C 259.4375 92.027344 258.523438 106.460938 257.855469 117.003906 C 257.757812 118.527344 257.667969 119.988281 257.613281 121.34375 C 257.296875 129.558594 255.980469 137.75 254.707031 145.671875 C 252.898438 156.917969 251.03125 168.550781 252.0625 180.238281 C 254.058594 202.816406 260.867188 220.898438 272.308594 233.976562 C 287.273438 251.085938 307.308594 254.085938 326.730469 254.777344 C 347.027344 255.5 368.308594 255.851562 391.78125 255.851562 Z M 390.898438 260.929688 C 374.398438 260.929688 357.769531 260.722656 341.472656 260.308594 C 339.242188 260.253906 336.984375 260.21875 334.714844 260.179688 C 316.824219 259.890625 298.320312 259.59375 282.925781 249.863281 C 253.09375 231.011719 242.550781 188.785156 247.554688 156.820312 C 248 153.972656 248.476562 151.152344 248.949219 148.335938 C 250.699219 137.902344 252.355469 128.050781 252.570312 117.550781 L 252.625 115.269531 C 252.714844 111.605469 252.804688 107.816406 252.617188 104.148438 C 252.175781 95.636719 244.480469 91.757812 237.519531 91.757812 C 235.980469 91.757812 234.453125 91.9375 232.988281 92.300781 C 230.46875 92.917969 227.839844 93.738281 225.289062 94.535156 C 219.742188 96.269531 214.003906 98.0625 208.632812 98.0625 C 201.890625 98.0625 196.667969 95.160156 192.664062 89.191406 C 186.667969 80.25 189.003906 68.3125 197.976562 62.003906 C 204.117188 57.691406 211.898438 56.996094 219.425781 56.328125 C 220.996094 56.1875 222.546875 56.046875 224.054688 55.875 C 227.703125 55.464844 231.445312 54.824219 235.0625 54.210938 C 241.410156 53.128906 247.96875 52.007812 254.445312 52.007812 L 254.929688 52.011719 C 269.851562 52.140625 286.871094 58.5 291.246094 72.421875 C 292.066406 75.03125 292.457031 77.75 292.828125 80.382812 C 293.855469 87.589844 294.742188 93.816406 303.710938 95.894531 C 304.625 96.105469 305.675781 96.210938 306.921875 96.210938 C 308.765625 96.210938 310.789062 95.984375 312.746094 95.761719 C 314.6875 95.539062 316.699219 95.3125 318.519531 95.3125 C 319.019531 95.3125 319.5 95.332031 319.96875 95.367188 C 321.132812 95.460938 322.351562 95.613281 323.585938 95.769531 C 325.640625 96.027344 327.757812 96.296875 329.769531 96.296875 C 330.582031 96.296875 331.382812 96.253906 332.15625 96.148438 C 345.644531 94.296875 342.929688 68.515625 340.945312 49.6875 C 340.226562 42.863281 339.605469 36.972656 339.867188 33.316406 C 340.9375 18.347656 347.847656 0.699219 363.785156 0.230469 L 364.464844 0.21875 C 379.554688 0.21875 386.78125 15.378906 387.25 30.402344 C 387.402344 35.210938 387.273438 40.078125 387.152344 44.785156 C 387.015625 50.042969 386.871094 55.480469 387.117188 60.847656 L 387.304688 64.90625 C 387.78125 75.175781 388.277344 85.789062 388.367188 96.246094 C 388.382812 98.324219 388.195312 100.898438 387.996094 103.621094 C 387.296875 113.183594 386.433594 125.082031 392.796875 129.628906 C 395.402344 131.488281 398.984375 132.351562 404.066406 132.351562 C 406.40625 132.351562 408.730469 132.179688 410.976562 132.007812 C 412.003906 131.933594 412.996094 131.859375 413.933594 131.804688 C 429.75 130.90625 445.890625 130.726562 461.5 130.550781 L 465.195312 130.507812 C 466.472656 129.3125 468.113281 128.335938 469.957031 127.671875 C 476.648438 125.265625 484.898438 124.933594 492.8125 124.933594 L 498.546875 124.960938 C 507.3125 125.039062 517.058594 126.003906 522.839844 132.574219 C 529.441406 140.089844 529.675781 155.199219 525.761719 164.058594 C 526.066406 167.765625 526.066406 171.789062 526.0625 175.679688 C 526.0625 177.320312 526.0625 178.941406 526.085938 180.535156 C 526.203125 190.339844 526.011719 200.679688 522.273438 209.855469 C 515.019531 227.667969 496.292969 242.453125 481.1875 250.34375 C 462.082031 260.328125 440.738281 260.535156 420.101562 260.730469 L 415.402344 260.777344 C 407.238281 260.878906 399.074219 260.929688 390.90625 260.929688 C 390.90625 260.929688 390.902344 260.929688 390.898438 260.929688 "/><g style="fill:#ffffff;fill-opacity:1;"><g transform="translate(2.691884, 351.080137)"><path style="stroke:none" d="M 57.296875 -62.3125 C 57.984375 -62.3125 58.578125 -62.085938 59.078125 -61.640625 C 59.585938 -61.128906 59.84375 -60.503906 59.84375 -59.765625 L 59.84375 -2.546875 C 59.84375 -1.804688 59.585938 -1.210938 59.078125 -0.765625 C 58.578125 -0.253906 57.984375 0 57.296875 0 L 52.703125 0 C 52.023438 0 51.460938 -0.253906 51.015625 -0.765625 C 50.503906 -1.210938 50.25 -1.804688 50.25 -2.546875 L 50.25 -30.015625 C 50.25 -30.578125 49.960938 -30.914062 49.390625 -31.03125 C 48.765625 -31.144531 48.367188 -30.914062 48.203125 -30.34375 L 37.75 -1.703125 C 37.570312 -1.191406 37.257812 -0.796875 36.8125 -0.515625 C 36.351562 -0.171875 35.867188 0 35.359375 0 L 28.734375 0 C 27.546875 0 26.753906 -0.566406 26.359375 -1.703125 L 15.890625 -30.34375 C 15.722656 -30.914062 15.328125 -31.144531 14.703125 -31.03125 C 14.140625 -30.914062 13.859375 -30.578125 13.859375 -30.015625 L 13.859375 -2.546875 C 13.859375 -1.804688 13.601562 -1.210938 13.09375 -0.765625 C 12.582031 -0.253906 11.988281 0 11.3125 0 L 6.796875 0 C 6.066406 0 5.472656 -0.253906 5.015625 -0.765625 C 4.503906 -1.210938 4.25 -1.804688 4.25 -2.546875 L 4.25 -59.765625 C 4.25 -60.503906 4.503906 -61.128906 5.015625 -61.640625 C 5.472656 -62.085938 6.066406 -62.3125 6.796875 -62.3125 L 12.671875 -62.3125 C 13.859375 -62.3125 14.648438 -61.742188 15.046875 -60.609375 L 31.03125 -16.75 C 31.195312 -16.289062 31.535156 -16.0625 32.046875 -16.0625 C 32.554688 -16.0625 32.867188 -16.289062 32.984375 -16.75 L 48.96875 -60.609375 C 49.425781 -61.742188 50.21875 -62.3125 51.34375 -62.3125 Z M 57.296875 -62.3125 "/></g></g><g style="fill:#ffffff;fill-opacity:1;"><g transform="translate(61.341342, 351.080137)"><path style="stroke:none" d="M 38.859375 0 C 37.660156 0 36.863281 -0.625 36.46875 -1.875 C 36.300781 -2.5 36.078125 -3.40625 35.796875 -4.59375 C 35.453125 -5.726562 35.023438 -7.285156 34.515625 -9.265625 C 34.117188 -10.515625 33.296875 -11.140625 32.046875 -11.140625 L 18.453125 -11.140625 C 17.203125 -11.140625 16.378906 -10.515625 15.984375 -9.265625 C 15.585938 -7.734375 15.25 -6.34375 14.96875 -5.09375 C 14.625 -3.851562 14.3125 -2.78125 14.03125 -1.875 C 13.632812 -0.625 12.835938 0 11.640625 0 L 6.796875 0 C 6.003906 0 5.351562 -0.335938 4.84375 -1.015625 C 4.332031 -1.640625 4.191406 -2.347656 4.421875 -3.140625 C 4.984375 -5.242188 5.691406 -7.910156 6.546875 -11.140625 C 7.398438 -14.304688 8.335938 -17.765625 9.359375 -21.515625 C 10.367188 -25.191406 11.414062 -29.015625 12.5 -32.984375 C 13.519531 -36.898438 14.507812 -40.640625 15.46875 -44.203125 C 16.375 -47.722656 17.222656 -50.925781 18.015625 -53.8125 C 18.753906 -56.644531 19.351562 -58.859375 19.8125 -60.453125 C 19.925781 -61.015625 20.207031 -61.46875 20.65625 -61.8125 C 21.113281 -62.144531 21.625 -62.3125 22.1875 -62.3125 L 28.3125 -62.3125 C 28.875 -62.3125 29.382812 -62.144531 29.84375 -61.8125 C 30.289062 -61.46875 30.570312 -61.015625 30.6875 -60.453125 C 32.675781 -52.960938 34.40625 -46.554688 35.875 -41.234375 C 37.289062 -35.898438 38.484375 -31.421875 39.453125 -27.796875 C 40.410156 -24.171875 41.203125 -21.253906 41.828125 -19.046875 C 42.390625 -16.835938 42.867188 -15.078125 43.265625 -13.765625 C 43.609375 -12.410156 43.894531 -11.394531 44.125 -10.71875 C 44.289062 -9.976562 44.460938 -9.296875 44.640625 -8.671875 C 44.804688 -8.046875 45.003906 -7.335938 45.234375 -6.546875 C 45.398438 -5.753906 45.679688 -4.617188 46.078125 -3.140625 C 46.304688 -2.347656 46.164062 -1.640625 45.65625 -1.015625 C 45.144531 -0.335938 44.492188 0 43.703125 0 Z M 19.890625 -23.890625 C 19.660156 -23.097656 19.800781 -22.390625 20.3125 -21.765625 C 20.820312 -21.085938 21.476562 -20.75 22.28125 -20.75 L 28.21875 -20.75 C 29.019531 -20.75 29.675781 -21.085938 30.1875 -21.765625 C 30.695312 -22.390625 30.835938 -23.097656 30.609375 -23.890625 C 30.148438 -25.472656 29.695312 -27.171875 29.25 -28.984375 C 28.738281 -30.796875 28.195312 -32.722656 27.625 -34.765625 C 27.457031 -35.390625 27.144531 -35.875 26.6875 -36.21875 C 26.238281 -36.5 25.757812 -36.640625 25.25 -36.640625 C 24.738281 -36.640625 24.253906 -36.5 23.796875 -36.21875 C 23.347656 -35.875 23.039062 -35.390625 22.875 -34.765625 C 22.363281 -32.953125 21.878906 -31.140625 21.421875 -29.328125 C 20.910156 -27.515625 20.398438 -25.703125 19.890625 -23.890625 Z M 19.890625 -23.890625 "/></g></g><g style="fill:#ffffff;fill-opacity:1;"><g transform="translate(106.390626, 351.080137)"><path style="stroke:none" d="M 19.46875 -62.3125 C 24.394531 -62.3125 28.109375 -60.984375 30.609375 -58.328125 C 33.097656 -55.660156 34.34375 -51.890625 34.34375 -47.015625 C 34.34375 -46.441406 34.175781 -45.988281 33.84375 -45.65625 C 33.4375 -45.257812 32.953125 -45.0625 32.390625 -45.0625 L 26.6875 -45.0625 C 26.125 -45.0625 25.671875 -45.257812 25.328125 -45.65625 C 24.929688 -45.988281 24.734375 -46.441406 24.734375 -47.015625 L 24.734375 -47.609375 C 24.734375 -49.765625 24.3125 -51.320312 23.46875 -52.28125 C 22.613281 -53.1875 21.363281 -53.640625 19.71875 -53.640625 C 18.082031 -53.640625 16.835938 -53.1875 15.984375 -52.28125 C 15.078125 -51.320312 14.625 -49.765625 14.625 -47.609375 C 14.625 -46.472656 14.765625 -45.425781 15.046875 -44.46875 C 15.328125 -43.445312 15.8125 -42.425781 16.5 -41.40625 C 17.175781 -40.382812 18.082031 -39.304688 19.21875 -38.171875 C 20.289062 -36.984375 21.648438 -35.707031 23.296875 -34.34375 C 25.390625 -32.582031 27.175781 -30.941406 28.65625 -29.421875 C 30.070312 -27.828125 31.203125 -26.296875 32.046875 -24.828125 C 32.898438 -23.296875 33.523438 -21.765625 33.921875 -20.234375 C 34.265625 -18.703125 34.4375 -17.054688 34.4375 -15.296875 C 34.4375 -10.367188 33.1875 -6.601562 30.6875 -4 C 28.132812 -1.332031 24.367188 0 19.390625 0 C 14.398438 0 10.628906 -1.332031 8.078125 -4 C 5.523438 -6.601562 4.25 -10.367188 4.25 -15.296875 L 4.25 -17.171875 C 4.25 -17.679688 4.445312 -18.132812 4.84375 -18.53125 C 5.1875 -18.875 5.613281 -19.046875 6.125 -19.046875 L 11.90625 -19.046875 C 12.414062 -19.046875 12.867188 -18.875 13.265625 -18.53125 C 13.660156 -18.132812 13.859375 -17.679688 13.859375 -17.171875 L 13.859375 -14.703125 C 13.859375 -12.554688 14.3125 -11.023438 15.21875 -10.109375 C 16.125 -9.203125 17.398438 -8.75 19.046875 -8.75 C 20.691406 -8.75 21.992188 -9.203125 22.953125 -10.109375 C 23.859375 -11.023438 24.3125 -12.554688 24.3125 -14.703125 C 24.3125 -15.785156 24.171875 -16.835938 23.890625 -17.859375 C 23.609375 -18.878906 23.125 -19.894531 22.4375 -20.90625 C 21.757812 -21.925781 20.882812 -23.035156 19.8125 -24.234375 C 18.675781 -25.367188 17.285156 -26.613281 15.640625 -27.96875 C 13.546875 -29.726562 11.789062 -31.375 10.375 -32.90625 C 8.957031 -34.4375 7.820312 -35.960938 6.96875 -37.484375 C 6.0625 -39.015625 5.4375 -40.546875 5.09375 -42.078125 C 4.695312 -43.609375 4.5 -45.253906 4.5 -47.015625 C 4.5 -51.890625 5.75 -55.660156 8.25 -58.328125 C 10.738281 -60.984375 14.476562 -62.3125 19.46875 -62.3125 Z M 19.46875 -62.3125 "/></g></g><g style="fill:#ffffff;fill-opacity:1;"><g transform="translate(139.624785, 351.080137)"><path style="stroke:none" d="M 50.5 -11.5625 C 50.84375 -11.394531 51.066406 -11.113281 51.171875 -10.71875 C 51.234375 -10.3125 51.148438 -9.96875 50.921875 -9.6875 L 50.921875 -9.609375 C 48.546875 -6.429688 45.65625 -4.050781 42.25 -2.46875 C 38.789062 -0.820312 34.9375 0 30.6875 0 C 22.070312 0 15.328125 -3.203125 10.453125 -9.609375 C 6.316406 -15.210938 4.25 -22.378906 4.25 -31.109375 C 4.25 -35.472656 4.785156 -39.472656 5.859375 -43.109375 C 6.878906 -46.734375 8.410156 -49.90625 10.453125 -52.625 C 12.835938 -55.851562 15.757812 -58.289062 19.21875 -59.9375 C 22.613281 -61.519531 26.4375 -62.3125 30.6875 -62.3125 C 34.9375 -62.3125 38.789062 -61.519531 42.25 -59.9375 C 45.65625 -58.289062 48.546875 -55.851562 50.921875 -52.625 C 51.148438 -52.34375 51.234375 -52.003906 51.171875 -51.609375 C 51.066406 -51.210938 50.84375 -50.925781 50.5 -50.75 L 44.46875 -47.1875 C 43.78125 -46.90625 43.210938 -47.019531 42.765625 -47.53125 C 41.796875 -48.65625 40.773438 -49.5625 39.703125 -50.25 C 38.566406 -50.925781 37.460938 -51.460938 36.390625 -51.859375 C 35.304688 -52.203125 34.285156 -52.429688 33.328125 -52.546875 C 32.304688 -52.648438 31.425781 -52.703125 30.6875 -52.703125 C 29.382812 -52.703125 27.800781 -52.503906 25.9375 -52.109375 C 24.007812 -51.660156 22.164062 -50.695312 20.40625 -49.21875 C 18.59375 -47.75 17.0625 -45.597656 15.8125 -42.765625 C 14.507812 -39.867188 13.859375 -35.984375 13.859375 -31.109375 C 13.859375 -26.234375 14.507812 -22.378906 15.8125 -19.546875 C 17.0625 -16.710938 18.59375 -14.5625 20.40625 -13.09375 C 22.164062 -11.613281 24.007812 -10.675781 25.9375 -10.28125 C 27.800781 -9.832031 29.382812 -9.609375 30.6875 -9.609375 C 31.425781 -9.609375 32.304688 -9.664062 33.328125 -9.78125 C 34.285156 -9.894531 35.304688 -10.148438 36.390625 -10.546875 C 37.460938 -10.878906 38.566406 -11.390625 39.703125 -12.078125 C 40.773438 -12.753906 41.796875 -13.660156 42.765625 -14.796875 C 43.210938 -15.359375 43.78125 -15.441406 44.46875 -15.046875 Z M 50.5 -11.5625 "/></g></g><g style="fill:#ffffff;fill-opacity:1;"><g transform="translate(189.604129, 351.080137)"><path style="stroke:none" d="M 27.890625 0 C 20.003906 0 13.910156 -3.285156 9.609375 -9.859375 C 6.035156 -15.410156 4.25 -22.492188 4.25 -31.109375 C 4.25 -35.359375 4.703125 -39.300781 5.609375 -42.9375 C 6.515625 -46.5 7.847656 -49.644531 9.609375 -52.375 C 13.910156 -59 20.003906 -62.3125 27.890625 -62.3125 C 35.765625 -62.3125 41.851562 -59 46.15625 -52.375 C 47.914062 -49.644531 49.25 -46.5 50.15625 -42.9375 C 51.0625 -39.300781 51.515625 -35.359375 51.515625 -31.109375 C 51.515625 -22.492188 49.726562 -15.410156 46.15625 -9.859375 C 41.851562 -3.285156 35.765625 0 27.890625 0 Z M 27.890625 -52.703125 C 25.734375 -52.703125 23.890625 -52.304688 22.359375 -51.515625 C 20.828125 -50.671875 19.550781 -49.59375 18.53125 -48.28125 C 17.457031 -46.925781 16.609375 -45.457031 15.984375 -43.875 C 15.359375 -42.226562 14.90625 -40.609375 14.625 -39.015625 C 14.28125 -37.378906 14.082031 -35.878906 14.03125 -34.515625 C 13.914062 -33.097656 13.859375 -31.960938 13.859375 -31.109375 C 13.859375 -30.265625 13.914062 -29.160156 14.03125 -27.796875 C 14.082031 -26.378906 14.28125 -24.878906 14.625 -23.296875 C 14.90625 -21.703125 15.359375 -20.113281 15.984375 -18.53125 C 16.609375 -16.882812 17.457031 -15.410156 18.53125 -14.109375 C 19.550781 -12.753906 20.828125 -11.675781 22.359375 -10.875 C 23.890625 -10.03125 25.734375 -9.609375 27.890625 -9.609375 C 30.035156 -9.609375 31.875 -10.03125 33.40625 -10.875 C 34.9375 -11.675781 36.242188 -12.753906 37.328125 -14.109375 C 38.347656 -15.410156 39.164062 -16.882812 39.78125 -18.53125 C 40.40625 -20.113281 40.890625 -21.703125 41.234375 -23.296875 C 41.515625 -24.878906 41.710938 -26.378906 41.828125 -27.796875 C 41.878906 -29.160156 41.90625 -30.265625 41.90625 -31.109375 C 41.90625 -31.960938 41.878906 -33.097656 41.828125 -34.515625 C 41.710938 -35.878906 41.515625 -37.378906 41.234375 -39.015625 C 40.890625 -40.609375 40.40625 -42.226562 39.78125 -43.875 C 39.164062 -45.457031 38.347656 -46.925781 37.328125 -48.28125 C 36.242188 -49.59375 34.9375 -50.671875 33.40625 -51.515625 C 31.875 -52.304688 30.035156 -52.703125 27.890625 -52.703125 Z M 27.890625 -52.703125 "/></g></g><g style="fill:#ffffff;fill-opacity:1;"><g transform="translate(239.923476, 351.080137)"><path style="stroke:none" d="M 39.359375 -55.171875 C 39.359375 -54.492188 39.132812 -53.925781 38.6875 -53.46875 C 38.175781 -52.957031 37.550781 -52.703125 36.8125 -52.703125 L 29.078125 -52.703125 C 28.398438 -52.703125 27.832031 -52.476562 27.375 -52.03125 C 26.863281 -51.519531 26.609375 -50.925781 26.609375 -50.25 L 26.609375 -2.46875 C 26.609375 -1.78125 26.382812 -1.210938 25.9375 -0.765625 C 25.425781 -0.253906 24.800781 0 24.0625 0 L 19.46875 0 C 18.789062 0 18.222656 -0.253906 17.765625 -0.765625 C 17.253906 -1.210938 17 -1.78125 17 -2.46875 L 17 -50.25 C 17 -50.925781 16.773438 -51.519531 16.328125 -52.03125 C 15.816406 -52.476562 15.21875 -52.703125 14.53125 -52.703125 L 6.71875 -52.703125 C 6.039062 -52.703125 5.472656 -52.957031 5.015625 -53.46875 C 4.503906 -53.925781 4.25 -54.492188 4.25 -55.171875 L 4.25 -59.84375 C 4.25 -60.53125 4.503906 -61.128906 5.015625 -61.640625 C 5.472656 -62.085938 6.039062 -62.3125 6.71875 -62.3125 L 36.8125 -62.3125 C 37.550781 -62.3125 38.175781 -62.085938 38.6875 -61.640625 C 39.132812 -61.128906 39.359375 -60.53125 39.359375 -59.84375 Z M 39.359375 -55.171875 "/></g></g><g style="fill:#ffffff;fill-opacity:1;"><g transform="translate(278.087696, 351.080137)"><path style="stroke:none" d="M 38.859375 0 C 37.660156 0 36.863281 -0.625 36.46875 -1.875 C 36.300781 -2.5 36.078125 -3.40625 35.796875 -4.59375 C 35.453125 -5.726562 35.023438 -7.285156 34.515625 -9.265625 C 34.117188 -10.515625 33.296875 -11.140625 32.046875 -11.140625 L 18.453125 -11.140625 C 17.203125 -11.140625 16.378906 -10.515625 15.984375 -9.265625 C 15.585938 -7.734375 15.25 -6.34375 14.96875 -5.09375 C 14.625 -3.851562 14.3125 -2.78125 14.03125 -1.875 C 13.632812 -0.625 12.835938 0 11.640625 0 L 6.796875 0 C 6.003906 0 5.351562 -0.335938 4.84375 -1.015625 C 4.332031 -1.640625 4.191406 -2.347656 4.421875 -3.140625 C 4.984375 -5.242188 5.691406 -7.910156 6.546875 -11.140625 C 7.398438 -14.304688 8.335938 -17.765625 9.359375 -21.515625 C 10.367188 -25.191406 11.414062 -29.015625 12.5 -32.984375 C 13.519531 -36.898438 14.507812 -40.640625 15.46875 -44.203125 C 16.375 -47.722656 17.222656 -50.925781 18.015625 -53.8125 C 18.753906 -56.644531 19.351562 -58.859375 19.8125 -60.453125 C 19.925781 -61.015625 20.207031 -61.46875 20.65625 -61.8125 C 21.113281 -62.144531 21.625 -62.3125 22.1875 -62.3125 L 28.3125 -62.3125 C 28.875 -62.3125 29.382812 -62.144531 29.84375 -61.8125 C 30.289062 -61.46875 30.570312 -61.015625 30.6875 -60.453125 C 32.675781 -52.960938 34.40625 -46.554688 35.875 -41.234375 C 37.289062 -35.898438 38.484375 -31.421875 39.453125 -27.796875 C 40.410156 -24.171875 41.203125 -21.253906 41.828125 -19.046875 C 42.390625 -16.835938 42.867188 -15.078125 43.265625 -13.765625 C 43.609375 -12.410156 43.894531 -11.394531 44.125 -10.71875 C 44.289062 -9.976562 44.460938 -9.296875 44.640625 -8.671875 C 44.804688 -8.046875 45.003906 -7.335938 45.234375 -6.546875 C 45.398438 -5.753906 45.679688 -4.617188 46.078125 -3.140625 C 46.304688 -2.347656 46.164062 -1.640625 45.65625 -1.015625 C 45.144531 -0.335938 44.492188 0 43.703125 0 Z M 19.890625 -23.890625 C 19.660156 -23.097656 19.800781 -22.390625 20.3125 -21.765625 C 20.820312 -21.085938 21.476562 -20.75 22.28125 -20.75 L 28.21875 -20.75 C 29.019531 -20.75 29.675781 -21.085938 30.1875 -21.765625 C 30.695312 -22.390625 30.835938 -23.097656 30.609375 -23.890625 C 30.148438 -25.472656 29.695312 -27.171875 29.25 -28.984375 C 28.738281 -30.796875 28.195312 -32.722656 27.625 -34.765625 C 27.457031 -35.390625 27.144531 -35.875 26.6875 -36.21875 C 26.238281 -36.5 25.757812 -36.640625 25.25 -36.640625 C 24.738281 -36.640625 24.253906 -36.5 23.796875 -36.21875 C 23.347656 -35.875 23.039062 -35.390625 22.875 -34.765625 C 22.363281 -32.953125 21.878906 -31.140625 21.421875 -29.328125 C 20.910156 -27.515625 20.398438 -25.703125 19.890625 -23.890625 Z M 19.890625 -23.890625 "/></g></g><g style="fill:#ffffff;fill-opacity:1;"><g transform="translate(323.13698, 351.080137)"><path style="stroke:none" d="M 19.46875 -62.3125 C 24.394531 -62.3125 28.109375 -60.984375 30.609375 -58.328125 C 33.097656 -55.660156 34.34375 -51.890625 34.34375 -47.015625 C 34.34375 -46.441406 34.175781 -45.988281 33.84375 -45.65625 C 33.4375 -45.257812 32.953125 -45.0625 32.390625 -45.0625 L 26.6875 -45.0625 C 26.125 -45.0625 25.671875 -45.257812 25.328125 -45.65625 C 24.929688 -45.988281 24.734375 -46.441406 24.734375 -47.015625 L 24.734375 -47.609375 C 24.734375 -49.765625 24.3125 -51.320312 23.46875 -52.28125 C 22.613281 -53.1875 21.363281 -53.640625 19.71875 -53.640625 C 18.082031 -53.640625 16.835938 -53.1875 15.984375 -52.28125 C 15.078125 -51.320312 14.625 -49.765625 14.625 -47.609375 C 14.625 -46.472656 14.765625 -45.425781 15.046875 -44.46875 C 15.328125 -43.445312 15.8125 -42.425781 16.5 -41.40625 C 17.175781 -40.382812 18.082031 -39.304688 19.21875 -38.171875 C 20.289062 -36.984375 21.648438 -35.707031 23.296875 -34.34375 C 25.390625 -32.582031 27.175781 -30.941406 28.65625 -29.421875 C 30.070312 -27.828125 31.203125 -26.296875 32.046875 -24.828125 C 32.898438 -23.296875 33.523438 -21.765625 33.921875 -20.234375 C 34.265625 -18.703125 34.4375 -17.054688 34.4375 -15.296875 C 34.4375 -10.367188 33.1875 -6.601562 30.6875 -4 C 28.132812 -1.332031 24.367188 0 19.390625 0 C 14.398438 0 10.628906 -1.332031 8.078125 -4 C 5.523438 -6.601562 4.25 -10.367188 4.25 -15.296875 L 4.25 -17.171875 C 4.25 -17.679688 4.445312 -18.132812 4.84375 -18.53125 C 5.1875 -18.875 5.613281 -19.046875 6.125 -19.046875 L 11.90625 -19.046875 C 12.414062 -19.046875 12.867188 -18.875 13.265625 -18.53125 C 13.660156 -18.132812 13.859375 -17.679688 13.859375 -17.171875 L 13.859375 -14.703125 C 13.859375 -12.554688 14.3125 -11.023438 15.21875 -10.109375 C 16.125 -9.203125 17.398438 -8.75 19.046875 -8.75 C 20.691406 -8.75 21.992188 -9.203125 22.953125 -10.109375 C 23.859375 -11.023438 24.3125 -12.554688 24.3125 -14.703125 C 24.3125 -15.785156 24.171875 -16.835938 23.890625 -17.859375 C 23.609375 -18.878906 23.125 -19.894531 22.4375 -20.90625 C 21.757812 -21.925781 20.882812 -23.035156 19.8125 -24.234375 C 18.675781 -25.367188 17.285156 -26.613281 15.640625 -27.96875 C 13.546875 -29.726562 11.789062 -31.375 10.375 -32.90625 C 8.957031 -34.4375 7.820312 -35.960938 6.96875 -37.484375 C 6.0625 -39.015625 5.4375 -40.546875 5.09375 -42.078125 C 4.695312 -43.609375 4.5 -45.253906 4.5 -47.015625 C 4.5 -51.890625 5.75 -55.660156 8.25 -58.328125 C 10.738281 -60.984375 14.476562 -62.3125 19.46875 -62.3125 Z M 19.46875 -62.3125 "/></g></g><g style="fill:#ffffff;fill-opacity:1;"><g transform="translate(356.371139, 351.080137)"><path style="stroke:none" d=""/></g></g><g style="fill:#ffffff;fill-opacity:1;"><g transform="translate(376.430137, 351.080137)"><path style="stroke:none" d="M 50.5 -11.5625 C 50.84375 -11.394531 51.066406 -11.113281 51.171875 -10.71875 C 51.234375 -10.3125 51.148438 -9.96875 50.921875 -9.6875 L 50.921875 -9.609375 C 48.546875 -6.429688 45.65625 -4.050781 42.25 -2.46875 C 38.789062 -0.820312 34.9375 0 30.6875 0 C 22.070312 0 15.328125 -3.203125 10.453125 -9.609375 C 6.316406 -15.210938 4.25 -22.378906 4.25 -31.109375 C 4.25 -35.472656 4.785156 -39.472656 5.859375 -43.109375 C 6.878906 -46.734375 8.410156 -49.90625 10.453125 -52.625 C 12.835938 -55.851562 15.757812 -58.289062 19.21875 -59.9375 C 22.613281 -61.519531 26.4375 -62.3125 30.6875 -62.3125 C 34.9375 -62.3125 38.789062 -61.519531 42.25 -59.9375 C 45.65625 -58.289062 48.546875 -55.851562 50.921875 -52.625 C 51.148438 -52.34375 51.234375 -52.003906 51.171875 -51.609375 C 51.066406 -51.210938 50.84375 -50.925781 50.5 -50.75 L 44.46875 -47.1875 C 43.78125 -46.90625 43.210938 -47.019531 42.765625 -47.53125 C 41.796875 -48.65625 40.773438 -49.5625 39.703125 -50.25 C 38.566406 -50.925781 37.460938 -51.460938 36.390625 -51.859375 C 35.304688 -52.203125 34.285156 -52.429688 33.328125 -52.546875 C 32.304688 -52.648438 31.425781 -52.703125 30.6875 -52.703125 C 29.382812 -52.703125 27.800781 -52.503906 25.9375 -52.109375 C 24.007812 -51.660156 22.164062 -50.695312 20.40625 -49.21875 C 18.59375 -47.75 17.0625 -45.597656 15.8125 -42.765625 C 14.507812 -39.867188 13.859375 -35.984375 13.859375 -31.109375 C 13.859375 -26.234375 14.507812 -22.378906 15.8125 -19.546875 C 17.0625 -16.710938 18.59375 -14.5625 20.40625 -13.09375 C 22.164062 -11.613281 24.007812 -10.675781 25.9375 -10.28125 C 27.800781 -9.832031 29.382812 -9.609375 30.6875 -9.609375 C 31.425781 -9.609375 32.304688 -9.664062 33.328125 -9.78125 C 34.285156 -9.894531 35.304688 -10.148438 36.390625 -10.546875 C 37.460938 -10.878906 38.566406 -11.390625 39.703125 -12.078125 C 40.773438 -12.753906 41.796875 -13.660156 42.765625 -14.796875 C 43.210938 -15.359375 43.78125 -15.441406 44.46875 -15.046875 Z M 50.5 -11.5625 "/></g></g><g style="fill:#ffffff;fill-opacity:1;"><g transform="translate(426.409481, 351.080137)"><path style="stroke:none" d="M 27.890625 0 C 20.003906 0 13.910156 -3.285156 9.609375 -9.859375 C 6.035156 -15.410156 4.25 -22.492188 4.25 -31.109375 C 4.25 -35.359375 4.703125 -39.300781 5.609375 -42.9375 C 6.515625 -46.5 7.847656 -49.644531 9.609375 -52.375 C 13.910156 -59 20.003906 -62.3125 27.890625 -62.3125 C 35.765625 -62.3125 41.851562 -59 46.15625 -52.375 C 47.914062 -49.644531 49.25 -46.5 50.15625 -42.9375 C 51.0625 -39.300781 51.515625 -35.359375 51.515625 -31.109375 C 51.515625 -22.492188 49.726562 -15.410156 46.15625 -9.859375 C 41.851562 -3.285156 35.765625 0 27.890625 0 Z M 27.890625 -52.703125 C 25.734375 -52.703125 23.890625 -52.304688 22.359375 -51.515625 C 20.828125 -50.671875 19.550781 -49.59375 18.53125 -48.28125 C 17.457031 -46.925781 16.609375 -45.457031 15.984375 -43.875 C 15.359375 -42.226562 14.90625 -40.609375 14.625 -39.015625 C 14.28125 -37.378906 14.082031 -35.878906 14.03125 -34.515625 C 13.914062 -33.097656 13.859375 -31.960938 13.859375 -31.109375 C 13.859375 -30.265625 13.914062 -29.160156 14.03125 -27.796875 C 14.082031 -26.378906 14.28125 -24.878906 14.625 -23.296875 C 14.90625 -21.703125 15.359375 -20.113281 15.984375 -18.53125 C 16.609375 -16.882812 17.457031 -15.410156 18.53125 -14.109375 C 19.550781 -12.753906 20.828125 -11.675781 22.359375 -10.875 C 23.890625 -10.03125 25.734375 -9.609375 27.890625 -9.609375 C 30.035156 -9.609375 31.875 -10.03125 33.40625 -10.875 C 34.9375 -11.675781 36.242188 -12.753906 37.328125 -14.109375 C 38.347656 -15.410156 39.164062 -16.882812 39.78125 -18.53125 C 40.40625 -20.113281 40.890625 -21.703125 41.234375 -23.296875 C 41.515625 -24.878906 41.710938 -26.378906 41.828125 -27.796875 C 41.878906 -29.160156 41.90625 -30.265625 41.90625 -31.109375 C 41.90625 -31.960938 41.878906 -33.097656 41.828125 -34.515625 C 41.710938 -35.878906 41.515625 -37.378906 41.234375 -39.015625 C 40.890625 -40.609375 40.40625 -42.226562 39.78125 -43.875 C 39.164062 -45.457031 38.347656 -46.925781 37.328125 -48.28125 C 36.242188 -49.59375 34.9375 -50.671875 33.40625 -51.515625 C 31.875 -52.304688 30.035156 -52.703125 27.890625 -52.703125 Z M 27.890625 -52.703125 "/></g></g><g style="fill:#ffffff;fill-opacity:1;"><g transform="translate(476.728829, 351.080137)"><path style="stroke:none" d="M 41.40625 -62.3125 C 42.082031 -62.3125 42.675781 -62.085938 43.1875 -61.640625 C 43.644531 -61.128906 43.875 -60.53125 43.875 -59.84375 L 43.875 -2.46875 C 43.875 -1.78125 43.644531 -1.210938 43.1875 -0.765625 C 42.675781 -0.253906 42.082031 0 41.40625 0 L 34.859375 0 C 33.835938 0 33.097656 -0.476562 32.640625 -1.4375 L 15.640625 -37.828125 C 15.472656 -38.285156 15.132812 -38.457031 14.625 -38.34375 C 14.113281 -38.226562 13.859375 -37.914062 13.859375 -37.40625 L 13.859375 -2.46875 C 13.859375 -1.78125 13.628906 -1.210938 13.171875 -0.765625 C 12.660156 -0.253906 12.039062 0 11.3125 0 L 6.71875 0 C 6.039062 0 5.472656 -0.253906 5.015625 -0.765625 C 4.503906 -1.210938 4.25 -1.78125 4.25 -2.46875 L 4.25 -59.84375 C 4.25 -60.53125 4.503906 -61.128906 5.015625 -61.640625 C 5.472656 -62.085938 6.039062 -62.3125 6.71875 -62.3125 L 13.265625 -62.3125 C 14.335938 -62.3125 15.070312 -61.832031 15.46875 -60.875 L 32.46875 -24.484375 C 32.644531 -24.023438 33.015625 -23.851562 33.578125 -23.96875 C 34.035156 -24.082031 34.265625 -24.394531 34.265625 -24.90625 L 34.265625 -59.84375 C 34.265625 -60.53125 34.519531 -61.128906 35.03125 -61.640625 C 35.539062 -62.085938 36.132812 -62.3125 36.8125 -62.3125 Z M 41.40625 -62.3125 "/></g></g><g style="fill:#ffffff;fill-opacity:1;"><g transform="translate(519.398121, 351.080137)"><path style="stroke:none" d=""/></g></g><g style="fill:#ffffff;fill-opacity:1;"><g transform="translate(539.457067, 351.080137)"><path style="stroke:none" d="M 34.859375 -55.171875 C 34.859375 -54.492188 34.628906 -53.925781 34.171875 -53.46875 C 33.660156 -52.957031 33.066406 -52.703125 32.390625 -52.703125 L 16.328125 -52.703125 C 15.640625 -52.703125 15.070312 -52.476562 14.625 -52.03125 C 14.113281 -51.519531 13.859375 -50.925781 13.859375 -50.25 L 13.859375 -45.140625 C 13.859375 -44.460938 14.113281 -43.894531 14.625 -43.4375 C 15.070312 -42.925781 15.640625 -42.671875 16.328125 -42.671875 L 26.953125 -42.671875 C 27.691406 -42.671875 28.3125 -42.445312 28.8125 -42 C 29.269531 -41.488281 29.5 -40.894531 29.5 -40.21875 L 29.5 -35.625 C 29.5 -34.9375 29.269531 -34.34375 28.8125 -33.84375 C 28.3125 -33.332031 27.691406 -33.078125 26.953125 -33.078125 L 16.328125 -33.078125 C 15.640625 -33.078125 15.070312 -32.847656 14.625 -32.390625 C 14.113281 -31.878906 13.859375 -31.285156 13.859375 -30.609375 L 13.859375 -12.078125 C 13.859375 -11.390625 14.113281 -10.820312 14.625 -10.375 C 15.070312 -9.863281 15.640625 -9.609375 16.328125 -9.609375 L 32.390625 -9.609375 C 33.066406 -9.609375 33.660156 -9.378906 34.171875 -8.921875 C 34.628906 -8.410156 34.859375 -7.816406 34.859375 -7.140625 L 34.859375 -2.46875 C 34.859375 -1.78125 34.628906 -1.210938 34.171875 -0.765625 C 33.660156 -0.253906 33.066406 0 32.390625 0 L 6.71875 0 C 6.039062 0 5.472656 -0.253906 5.015625 -0.765625 C 4.503906 -1.210938 4.25 -1.78125 4.25 -2.46875 L 4.25 -59.84375 C 4.25 -60.53125 4.503906 -61.128906 5.015625 -61.640625 C 5.472656 -62.085938 6.039062 -62.3125 6.71875 -62.3125 L 32.390625 -62.3125 C 33.066406 -62.3125 33.660156 -62.085938 34.171875 -61.640625 C 34.628906 -61.128906 34.859375 -60.53125 34.859375 -59.84375 Z M 34.859375 -55.171875 "/></g></g><g style="fill:#ffffff;fill-opacity:1;"><g transform="translate(573.116217, 351.080137)"><path style="stroke:none" d="M 19.46875 -62.3125 C 24.394531 -62.3125 28.109375 -60.984375 30.609375 -58.328125 C 33.097656 -55.660156 34.34375 -51.890625 34.34375 -47.015625 C 34.34375 -46.441406 34.175781 -45.988281 33.84375 -45.65625 C 33.4375 -45.257812 32.953125 -45.0625 32.390625 -45.0625 L 26.6875 -45.0625 C 26.125 -45.0625 25.671875 -45.257812 25.328125 -45.65625 C 24.929688 -45.988281 24.734375 -46.441406 24.734375 -47.015625 L 24.734375 -47.609375 C 24.734375 -49.765625 24.3125 -51.320312 23.46875 -52.28125 C 22.613281 -53.1875 21.363281 -53.640625 19.71875 -53.640625 C 18.082031 -53.640625 16.835938 -53.1875 15.984375 -52.28125 C 15.078125 -51.320312 14.625 -49.765625 14.625 -47.609375 C 14.625 -46.472656 14.765625 -45.425781 15.046875 -44.46875 C 15.328125 -43.445312 15.8125 -42.425781 16.5 -41.40625 C 17.175781 -40.382812 18.082031 -39.304688 19.21875 -38.171875 C 20.289062 -36.984375 21.648438 -35.707031 23.296875 -34.34375 C 25.390625 -32.582031 27.175781 -30.941406 28.65625 -29.421875 C 30.070312 -27.828125 31.203125 -26.296875 32.046875 -24.828125 C 32.898438 -23.296875 33.523438 -21.765625 33.921875 -20.234375 C 34.265625 -18.703125 34.4375 -17.054688 34.4375 -15.296875 C 34.4375 -10.367188 33.1875 -6.601562 30.6875 -4 C 28.132812 -1.332031 24.367188 0 19.390625 0 C 14.398438 0 10.628906 -1.332031 8.078125 -4 C 5.523438 -6.601562 4.25 -10.367188 4.25 -15.296875 L 4.25 -17.171875 C 4.25 -17.679688 4.445312 -18.132812 4.84375 -18.53125 C 5.1875 -18.875 5.613281 -19.046875 6.125 -19.046875 L 11.90625 -19.046875 C 12.414062 -19.046875 12.867188 -18.875 13.265625 -18.53125 C 13.660156 -18.132812 13.859375 -17.679688 13.859375 -17.171875 L 13.859375 -14.703125 C 13.859375 -12.554688 14.3125 -11.023438 15.21875 -10.109375 C 16.125 -9.203125 17.398438 -8.75 19.046875 -8.75 C 20.691406 -8.75 21.992188 -9.203125 22.953125 -10.109375 C 23.859375 -11.023438 24.3125 -12.554688 24.3125 -14.703125 C 24.3125 -15.785156 24.171875 -16.835938 23.890625 -17.859375 C 23.609375 -18.878906 23.125 -19.894531 22.4375 -20.90625 C 21.757812 -21.925781 20.882812 -23.035156 19.8125 -24.234375 C 18.675781 -25.367188 17.285156 -26.613281 15.640625 -27.96875 C 13.546875 -29.726562 11.789062 -31.375 10.375 -32.90625 C 8.957031 -34.4375 7.820312 -35.960938 6.96875 -37.484375 C 6.0625 -39.015625 5.4375 -40.546875 5.09375 -42.078125 C 4.695312 -43.609375 4.5 -45.253906 4.5 -47.015625 C 4.5 -51.890625 5.75 -55.660156 8.25 -58.328125 C 10.738281 -60.984375 14.476562 -62.3125 19.46875 -62.3125 Z M 19.46875 -62.3125 "/></g></g><g style="fill:#ffffff;fill-opacity:1;"><g transform="translate(606.350427, 351.080137)"><path style="stroke:none" d="M 39.359375 -55.171875 C 39.359375 -54.492188 39.132812 -53.925781 38.6875 -53.46875 C 38.175781 -52.957031 37.550781 -52.703125 36.8125 -52.703125 L 29.078125 -52.703125 C 28.398438 -52.703125 27.832031 -52.476562 27.375 -52.03125 C 26.863281 -51.519531 26.609375 -50.925781 26.609375 -50.25 L 26.609375 -2.46875 C 26.609375 -1.78125 26.382812 -1.210938 25.9375 -0.765625 C 25.425781 -0.253906 24.800781 0 24.0625 0 L 19.46875 0 C 18.789062 0 18.222656 -0.253906 17.765625 -0.765625 C 17.253906 -1.210938 17 -1.78125 17 -2.46875 L 17 -50.25 C 17 -50.925781 16.773438 -51.519531 16.328125 -52.03125 C 15.816406 -52.476562 15.21875 -52.703125 14.53125 -52.703125 L 6.71875 -52.703125 C 6.039062 -52.703125 5.472656 -52.957031 5.015625 -53.46875 C 4.503906 -53.925781 4.25 -54.492188 4.25 -55.171875 L 4.25 -59.84375 C 4.25 -60.53125 4.503906 -61.128906 5.015625 -61.640625 C 5.472656 -62.085938 6.039062 -62.3125 6.71875 -62.3125 L 36.8125 -62.3125 C 37.550781 -62.3125 38.175781 -62.085938 38.6875 -61.640625 C 39.132812 -61.128906 39.359375 -60.53125 39.359375 -59.84375 Z M 39.359375 -55.171875 "/></g></g><g style="fill:#ffffff;fill-opacity:1;"><g transform="translate(644.514647, 351.080137)"><path style="stroke:none" d="M 11.390625 -62.3125 C 12.066406 -62.3125 12.660156 -62.085938 13.171875 -61.640625 C 13.628906 -61.128906 13.859375 -60.53125 13.859375 -59.84375 L 13.859375 -2.46875 C 13.859375 -1.78125 13.628906 -1.210938 13.171875 -0.765625 C 12.660156 -0.253906 12.066406 0 11.390625 0 L 6.71875 0 C 6.039062 0 5.472656 -0.253906 5.015625 -0.765625 C 4.503906 -1.210938 4.25 -1.78125 4.25 -2.46875 L 4.25 -59.84375 C 4.25 -60.53125 4.503906 -61.128906 5.015625 -61.640625 C 5.472656 -62.085938 6.039062 -62.3125 6.71875 -62.3125 Z M 11.390625 -62.3125 "/></g></g><g style="fill:#ffffff;fill-opacity:1;"><g transform="translate(657.178527, 351.080137)"><path style="stroke:none" d="M 30.1875 -9.609375 C 30.863281 -9.609375 31.457031 -9.378906 31.96875 -8.921875 C 32.414062 -8.410156 32.640625 -7.816406 32.640625 -7.140625 L 32.640625 -2.46875 C 32.640625 -1.78125 32.414062 -1.210938 31.96875 -0.765625 C 31.457031 -0.253906 30.863281 0 30.1875 0 L 6.71875 0 C 6.039062 0 5.472656 -0.253906 5.015625 -0.765625 C 4.503906 -1.210938 4.25 -1.78125 4.25 -2.46875 L 4.25 -59.84375 C 4.25 -60.53125 4.503906 -61.128906 5.015625 -61.640625 C 5.472656 -62.085938 6.039062 -62.3125 6.71875 -62.3125 L 11.390625 -62.3125 C 12.066406 -62.3125 12.660156 -62.085938 13.171875 -61.640625 C 13.628906 -61.128906 13.859375 -60.53125 13.859375 -59.84375 L 13.859375 -12.078125 C 13.859375 -11.390625 14.113281 -10.820312 14.625 -10.375 C 15.070312 -9.863281 15.640625 -9.609375 16.328125 -9.609375 Z M 30.1875 -9.609375 "/></g></g><g style="fill:#ffffff;fill-opacity:1;"><g transform="translate(688.627687, 351.080137)"><path style="stroke:none" d="M 27.890625 0 C 20.003906 0 13.910156 -3.285156 9.609375 -9.859375 C 6.035156 -15.410156 4.25 -22.492188 4.25 -31.109375 C 4.25 -35.359375 4.703125 -39.300781 5.609375 -42.9375 C 6.515625 -46.5 7.847656 -49.644531 9.609375 -52.375 C 13.910156 -59 20.003906 -62.3125 27.890625 -62.3125 C 35.765625 -62.3125 41.851562 -59 46.15625 -52.375 C 47.914062 -49.644531 49.25 -46.5 50.15625 -42.9375 C 51.0625 -39.300781 51.515625 -35.359375 51.515625 -31.109375 C 51.515625 -22.492188 49.726562 -15.410156 46.15625 -9.859375 C 41.851562 -3.285156 35.765625 0 27.890625 0 Z M 27.890625 -52.703125 C 25.734375 -52.703125 23.890625 -52.304688 22.359375 -51.515625 C 20.828125 -50.671875 19.550781 -49.59375 18.53125 -48.28125 C 17.457031 -46.925781 16.609375 -45.457031 15.984375 -43.875 C 15.359375 -42.226562 14.90625 -40.609375 14.625 -39.015625 C 14.28125 -37.378906 14.082031 -35.878906 14.03125 -34.515625 C 13.914062 -33.097656 13.859375 -31.960938 13.859375 -31.109375 C 13.859375 -30.265625 13.914062 -29.160156 14.03125 -27.796875 C 14.082031 -26.378906 14.28125 -24.878906 14.625 -23.296875 C 14.90625 -21.703125 15.359375 -20.113281 15.984375 -18.53125 C 16.609375 -16.882812 17.457031 -15.410156 18.53125 -14.109375 C 19.550781 -12.753906 20.828125 -11.675781 22.359375 -10.875 C 23.890625 -10.03125 25.734375 -9.609375 27.890625 -9.609375 C 30.035156 -9.609375 31.875 -10.03125 33.40625 -10.875 C 34.9375 -11.675781 36.242188 -12.753906 37.328125 -14.109375 C 38.347656 -15.410156 39.164062 -16.882812 39.78125 -18.53125 C 40.40625 -20.113281 40.890625 -21.703125 41.234375 -23.296875 C 41.515625 -24.878906 41.710938 -26.378906 41.828125 -27.796875 C 41.878906 -29.160156 41.90625 -30.265625 41.90625 -31.109375 C 41.90625 -31.960938 41.878906 -33.097656 41.828125 -34.515625 C 41.710938 -35.878906 41.515625 -37.378906 41.234375 -39.015625 C 40.890625 -40.609375 40.40625 -42.226562 39.78125 -43.875 C 39.164062 -45.457031 38.347656 -46.925781 37.328125 -48.28125 C 36.242188 -49.59375 34.9375 -50.671875 33.40625 -51.515625 C 31.875 -52.304688 30.035156 -52.703125 27.890625 -52.703125 Z M 27.890625 -52.703125 "/></g></g></g></svg>